<?xml version="1.0" encoding="UTF-8" standalone="no"?>
<svg
   xmlns:dc="http://purl.org/dc/elements/1.1/"
   xmlns:cc="http://creativecommons.org/ns#"
   xmlns:rdf="http://www.w3.org/1999/02/22-rdf-syntax-ns#"
   xmlns:svg="http://www.w3.org/2000/svg"
   xmlns="http://www.w3.org/2000/svg"
   viewBox="0 0 20.895201 29.462667"
   height="29.462667"
   width="20.895201"
   xml:space="preserve"
   id="svg2"
   version="1.1"><metadata
     id="metadata8"><rdf:RDF><cc:Work
         rdf:about=""><dc:format>image/svg+xml</dc:format><dc:type
           rdf:resource="http://purl.org/dc/dcmitype/StillImage" /></cc:Work></rdf:RDF></metadata><defs
     id="defs6"><clipPath
       id="clipPath18"
       clipPathUnits="userSpaceOnUse"><path
         id="path16"
         d="M 0,22.097 H 15.671 V 0 H 0 Z" /></clipPath></defs><g
     transform="matrix(1.3333333,0,0,-1.3333333,0,29.462667)"
     id="g10"><g
       id="g12"><g
         clip-path="url(#clipPath18)"
         id="g14"><g
           transform="translate(15.1714,14.2613)"
           id="g20"><path
             id="path22"
             style="fill:none;stroke:#6d6f71;stroke-width:1;stroke-linecap:butt;stroke-linejoin:miter;stroke-miterlimit:10;stroke-dasharray:none;stroke-opacity:1"
             d="m 0,0 c 0,-4.051 -7.336,-13.449 -7.336,-13.449 0,0 -7.335,9.398 -7.335,13.449 0,4.051 3.284,7.336 7.335,7.336 C -3.284,7.336 0,4.051 0,0 Z" /></g><g
           transform="translate(10.8922,14.2613)"
           id="g24"><path
             id="path26"
             style="fill:none;stroke:#6d6f71;stroke-width:1;stroke-linecap:butt;stroke-linejoin:miter;stroke-miterlimit:10;stroke-dasharray:none;stroke-opacity:1"
             d="m 0,0 c 0,-1.688 -1.368,-3.057 -3.057,-3.057 -1.688,0 -3.056,1.369 -3.056,3.057 0,1.688 1.368,3.057 3.056,3.057 C -1.368,3.057 0,1.688 0,0 Z" /></g></g></g></g></svg>