<?xml version="1.0" encoding="UTF-8" standalone="no"?>
<svg
   xmlns:dc="http://purl.org/dc/elements/1.1/"
   xmlns:cc="http://creativecommons.org/ns#"
   xmlns:rdf="http://www.w3.org/1999/02/22-rdf-syntax-ns#"
   xmlns:svg="http://www.w3.org/2000/svg"
   xmlns="http://www.w3.org/2000/svg"
   viewBox="0 0 18.976667 21.806667"
   height="21.806667"
   width="18.976667"
   xml:space="preserve"
   id="svg2"
   version="1.1"><metadata
     id="metadata8"><rdf:RDF><cc:Work
         rdf:about=""><dc:format>image/svg+xml</dc:format><dc:type
           rdf:resource="http://purl.org/dc/dcmitype/StillImage" /></cc:Work></rdf:RDF></metadata><defs
     id="defs6"><clipPath
       id="clipPath18"
       clipPathUnits="userSpaceOnUse"><path
         id="path16"
         d="M 0,16.355 H 14.232 V 0 H 0 Z" /></clipPath></defs><g
     transform="matrix(1.3333333,0,0,-1.3333333,0,21.806667)"
     id="g10"><g
       id="g12"><g
         clip-path="url(#clipPath18)"
         id="g14"><g
           transform="translate(7.6628,5.3092)"
           id="g20"><path
             id="path22"
             style="fill:#6d6f71;fill-opacity:1;fill-rule:nonzero;stroke:none"
             d="m 0,0 v 1.242 c 0,0.301 -0.246,0.546 -0.547,0.546 -0.301,0 -0.546,-0.245 -0.546,-0.546 V 0 c -0.325,-0.19 -0.547,-0.538 -0.547,-0.941 0,-0.602 0.491,-1.093 1.093,-1.093 0.603,0 1.09,0.491 1.09,1.093 C 0.543,-0.538 0.325,-0.19 0,0 m 5.477,-3.67 c 0,-0.301 -0.245,-0.546 -0.547,-0.546 H -6.027 c -0.298,0 -0.543,0.245 -0.543,0.546 v 6.548 c 0,0.301 0.245,0.546 0.543,0.546 H 4.93 c 0.302,0 0.547,-0.245 0.547,-0.546 z M -3.822,6.681 c 0,1.804 1.468,3.272 3.275,3.272 1.804,0 3.276,-1.468 3.276,-3.272 V 4.517 h -6.551 z m 7.64,-2.164 v 2.164 c 0,2.406 -1.958,4.365 -4.365,4.365 -2.409,0 -4.368,-1.959 -4.368,-4.365 V 4.517 h -1.112 c -0.9,0 -1.636,-0.735 -1.636,-1.639 V -3.67 c 0,-0.903 0.736,-1.639 1.636,-1.639 H 4.93 c 0.903,0 1.64,0.736 1.64,1.639 v 6.548 c 0,0.904 -0.737,1.639 -1.64,1.639 z" /></g></g></g></g></svg>