<?xml version="1.0" encoding="UTF-8" standalone="no"?>
<svg
   xmlns:dc="http://purl.org/dc/elements/1.1/"
   xmlns:cc="http://creativecommons.org/ns#"
   xmlns:rdf="http://www.w3.org/1999/02/22-rdf-syntax-ns#"
   xmlns:svg="http://www.w3.org/2000/svg"
   xmlns="http://www.w3.org/2000/svg"
   viewBox="0 0 151.73466 95.76413"
   height="95.76413"
   width="151.73466"
   xml:space="preserve"
   id="svg2"
   version="1.1"><metadata
     id="metadata8"><rdf:RDF><cc:Work
         rdf:about=""><dc:format>image/svg+xml</dc:format><dc:type
           rdf:resource="http://purl.org/dc/dcmitype/StillImage" /></cc:Work></rdf:RDF></metadata><defs
     id="defs6"><clipPath
       id="clipPath18"
       clipPathUnits="userSpaceOnUse"><path
         id="path16"
         d="M 0,71.823 H 113.801 V 0 H 0 Z" /></clipPath></defs><g
     transform="matrix(1.3333333,0,0,-1.3333333,0,95.764133)"
     id="g10"><g
       id="g12"><g
         clip-path="url(#clipPath18)"
         id="g14"><g
           transform="translate(10.2516,12.1007)"
           id="g20"><path
             id="path22"
             style="fill:#000000;fill-opacity:1;fill-rule:nonzero;stroke:none"
             d="M 0,0 C 0.049,0.153 0.164,0.258 0.345,0.314 0.443,0.342 0.547,0.362 0.659,0.376 0.77,0.391 0.878,0.403 0.982,0.413 1.087,0.424 1.183,0.43 1.27,0.434 1.357,0.437 1.425,0.439 1.473,0.439 1.55,0.439 1.6,0.427 1.625,0.403 1.65,0.378 1.661,0.348 1.661,0.314 1.661,0.286 1.644,0.226 1.609,0.136 l -4.963,-11.86 c -0.056,-0.119 -0.115,-0.182 -0.178,-0.189 -0.035,-0.006 -0.093,-0.014 -0.172,-0.021 -0.081,-0.007 -0.164,-0.012 -0.251,-0.016 -0.087,-0.003 -0.171,-0.006 -0.251,-0.01 -0.08,-0.003 -0.134,-0.005 -0.162,-0.005 -0.042,0 -0.082,0.01 -0.12,0.031 -0.038,0.021 -0.072,0.067 -0.1,0.136 l -4.117,10.607 c -0.125,0.327 -0.273,0.547 -0.444,0.658 -0.171,0.112 -0.367,0.168 -0.591,0.168 -0.069,0 -0.14,-0.004 -0.213,-0.011 -0.074,-0.007 -0.152,-0.017 -0.236,-0.032 l -0.063,0.575 c 0.307,0.063 0.614,0.117 0.921,0.162 0.306,0.046 0.586,0.084 0.84,0.115 0.254,0.032 0.469,0.056 0.643,0.073 0.174,0.018 0.286,0.026 0.334,0.026 0.105,0 0.182,-0.033 0.231,-0.099 0.048,-0.066 0.097,-0.158 0.146,-0.277 l 3.731,-9.729 h 0.041 z" /></g><g
           transform="translate(15.9259,1.9226)"
           id="g24"><path
             id="path26"
             style="fill:#000000;fill-opacity:1;fill-rule:nonzero;stroke:none"
             d="M 0,0 C 0,-0.168 0.006,-0.298 0.016,-0.392 0.026,-0.486 0.054,-0.559 0.099,-0.611 0.145,-0.664 0.22,-0.697 0.324,-0.71 0.429,-0.725 0.575,-0.732 0.763,-0.732 h 1.348 c 0.557,0 1.01,0.012 1.359,0.037 0.348,0.025 0.644,0.104 0.888,0.24 0.243,0.136 0.458,0.352 0.642,0.648 0.185,0.296 0.393,0.716 0.622,1.26 L 6.145,1.338 C 6.145,1.289 6.129,1.163 6.098,0.961 6.067,0.759 6.027,0.524 5.978,0.256 5.929,-0.013 5.873,-0.286 5.811,-0.564 5.748,-0.843 5.685,-1.087 5.622,-1.296 5.532,-1.533 5.361,-1.651 5.11,-1.651 c -0.258,0 -0.564,0.002 -0.919,0.005 -0.355,0.004 -0.751,0.007 -1.186,0.011 -0.436,0.003 -0.903,0.007 -1.401,0.01 -0.498,0.003 -1.018,0.005 -1.562,0.005 h -1.734 c -0.098,0 -0.164,0.03 -0.199,0.089 -0.035,0.059 -0.052,0.117 -0.052,0.172 V 8.684 c 0,0.355 -0.08,0.59 -0.241,0.706 -0.16,0.114 -0.359,0.172 -0.596,0.172 -0.146,0 -0.295,-0.011 -0.449,-0.032 l -0.063,0.575 c 0.147,0.028 0.359,0.063 0.638,0.104 0.279,0.043 0.57,0.084 0.873,0.126 0.303,0.042 0.595,0.076 0.877,0.105 0.283,0.027 0.504,0.041 0.664,0.041 h 3.804 c 0.237,0 0.484,0.002 0.742,0.006 0.258,0.003 0.543,0.008 0.856,0.016 0.112,0 0.175,-0.053 0.188,-0.158 C 5.357,10.248 5.366,10.119 5.377,9.959 5.387,9.798 5.396,9.624 5.403,9.436 5.41,9.248 5.419,9.057 5.429,8.862 5.439,8.667 5.449,8.485 5.455,8.318 5.462,8.151 5.467,8.008 5.471,7.89 5.474,7.771 5.476,7.698 5.476,7.67 L 4.954,7.618 C 4.835,8.112 4.715,8.496 4.593,8.768 4.471,9.039 4.316,9.238 4.128,9.363 3.94,9.489 3.702,9.563 3.412,9.588 3.123,9.612 2.748,9.624 2.289,9.624 H 0.449 C 0.331,9.624 0.242,9.621 0.183,9.614 0.124,9.607 0.08,9.589 0.052,9.562 0.025,9.534 0.009,9.493 0.006,9.441 0.002,9.39 0,9.318 0,9.228 V 4.995 C 0.571,5.023 1.096,5.049 1.573,5.073 2.05,5.097 2.464,5.119 2.817,5.136 3.168,5.153 3.452,5.167 3.669,5.178 3.884,5.189 4.016,5.194 4.065,5.194 4.26,5.194 4.358,5.089 4.358,4.88 4.358,4.747 4.351,4.612 4.337,4.472 4.323,4.333 4.306,4.183 4.285,4.023 L 0,4.169 Z" /></g><g
           transform="translate(26.6793,6.5729)"
           id="g28"><path
             id="path30"
             style="fill:#000000;fill-opacity:1;fill-rule:nonzero;stroke:none"
             d="m 0,0 c 0.536,0.034 1.01,0.111 1.421,0.23 0.411,0.118 0.754,0.291 1.03,0.517 0.274,0.226 0.483,0.514 0.626,0.862 0.143,0.348 0.215,0.77 0.215,1.265 0,0.41 -0.077,0.769 -0.23,1.076 C 2.908,4.256 2.696,4.509 2.424,4.707 2.152,4.906 1.832,5.054 1.463,5.152 1.094,5.249 0.697,5.298 0.271,5.298 -0.007,5.298 -0.216,5.275 -0.356,5.23 -0.495,5.185 -0.564,5.057 -0.564,4.849 V -5.988 c 0,-0.168 -0.084,-0.265 -0.251,-0.293 -0.119,-0.021 -0.249,-0.04 -0.392,-0.057 -0.143,-0.017 -0.282,-0.031 -0.418,-0.042 -0.136,-0.01 -0.261,-0.017 -0.376,-0.021 -0.115,-0.003 -0.201,-0.005 -0.256,-0.005 -0.167,0 -0.251,0.087 -0.251,0.261 V 4.337 c 0,0.348 -0.077,0.58 -0.23,0.694 -0.153,0.115 -0.352,0.173 -0.596,0.173 -0.14,0 -0.292,-0.011 -0.46,-0.031 l -0.063,0.574 c 0.697,0.119 1.42,0.218 2.169,0.298 0.749,0.08 1.514,0.12 2.294,0.12 0.334,0 0.686,-0.014 1.055,-0.041 C 2.031,6.096 2.392,6.044 2.748,5.967 3.103,5.89 3.442,5.784 3.762,5.648 4.082,5.512 4.363,5.334 4.603,5.115 4.843,4.895 5.035,4.631 5.178,4.321 5.321,4.011 5.392,3.643 5.392,3.218 5.392,2.765 5.324,2.367 5.189,2.022 5.052,1.677 4.865,1.372 4.624,1.107 4.383,0.843 4.103,0.616 3.782,0.428 3.462,0.241 3.118,0.08 2.748,-0.052 V -0.115 C 2.922,-0.15 3.11,-0.204 3.313,-0.277 3.515,-0.35 3.711,-0.455 3.903,-0.591 4.094,-0.726 4.272,-0.899 4.436,-1.108 4.6,-1.317 4.73,-1.575 4.828,-1.882 l 0.773,-2.392 c 0.104,-0.328 0.2,-0.589 0.288,-0.784 0.086,-0.195 0.179,-0.343 0.276,-0.444 0.098,-0.101 0.21,-0.167 0.335,-0.199 0.125,-0.031 0.282,-0.046 0.47,-0.046 L 7.002,-6.291 C 6.869,-6.319 6.725,-6.345 6.567,-6.369 6.411,-6.394 6.256,-6.413 6.103,-6.427 5.949,-6.441 5.812,-6.453 5.69,-6.463 5.568,-6.474 5.476,-6.479 5.413,-6.479 c -0.223,0 -0.422,0.026 -0.596,0.078 -0.174,0.053 -0.331,0.143 -0.47,0.272 -0.139,0.129 -0.263,0.3 -0.371,0.512 -0.108,0.212 -0.207,0.479 -0.298,0.799 l -0.742,2.55 c -0.105,0.362 -0.23,0.652 -0.376,0.868 -0.146,0.215 -0.33,0.381 -0.548,0.496 -0.22,0.115 -0.485,0.191 -0.795,0.23 -0.31,0.038 -0.684,0.064 -1.123,0.078 z" /></g><g
           transform="translate(37.3694,1.9226)"
           id="g32"><path
             id="path34"
             style="fill:#000000;fill-opacity:1;fill-rule:nonzero;stroke:none"
             d="M 0,0 C 0,-0.168 0.005,-0.298 0.015,-0.392 0.026,-0.486 0.054,-0.559 0.099,-0.611 0.144,-0.664 0.22,-0.697 0.324,-0.71 0.428,-0.725 0.575,-0.732 0.763,-0.732 h 1.348 c 0.557,0 1.01,0.012 1.358,0.037 0.348,0.025 0.645,0.104 0.889,0.24 0.243,0.136 0.458,0.352 0.642,0.648 0.185,0.296 0.392,0.716 0.622,1.26 L 6.145,1.338 C 6.145,1.289 6.129,1.163 6.098,0.961 6.066,0.759 6.026,0.524 5.977,0.256 5.929,-0.013 5.873,-0.286 5.811,-0.564 5.748,-0.843 5.685,-1.087 5.622,-1.296 5.531,-1.533 5.361,-1.651 5.11,-1.651 c -0.258,0 -0.564,0.002 -0.92,0.005 -0.354,0.004 -0.75,0.007 -1.186,0.011 -0.435,0.003 -0.902,0.007 -1.4,0.01 -0.498,0.003 -1.018,0.005 -1.562,0.005 h -1.735 c -0.098,0 -0.164,0.03 -0.198,0.089 -0.036,0.059 -0.053,0.117 -0.053,0.172 V 8.684 c 0,0.355 -0.079,0.59 -0.24,0.706 -0.16,0.114 -0.359,0.172 -0.596,0.172 -0.146,0 -0.296,-0.011 -0.449,-0.032 l -0.063,0.575 c 0.146,0.028 0.359,0.063 0.638,0.104 0.278,0.043 0.569,0.084 0.872,0.126 0.304,0.042 0.595,0.076 0.878,0.105 0.282,0.027 0.503,0.041 0.664,0.041 h 3.804 c 0.236,0 0.484,0.002 0.741,0.006 0.258,0.003 0.544,0.008 0.857,0.016 0.112,0 0.174,-0.053 0.188,-0.158 C 5.357,10.248 5.366,10.119 5.376,9.959 5.387,9.798 5.396,9.624 5.402,9.436 5.409,9.248 5.418,9.057 5.429,8.862 5.439,8.667 5.448,8.485 5.455,8.318 5.462,8.151 5.467,8.008 5.471,7.89 5.474,7.771 5.476,7.698 5.476,7.67 L 4.953,7.618 C 4.834,8.112 4.715,8.496 4.593,8.768 4.471,9.039 4.316,9.238 4.127,9.363 3.939,9.489 3.701,9.563 3.412,9.588 3.123,9.612 2.748,9.624 2.289,9.624 H 0.449 C 0.331,9.624 0.242,9.621 0.183,9.614 0.124,9.607 0.08,9.589 0.052,9.562 0.025,9.534 0.009,9.493 0.005,9.441 0.002,9.39 0,9.318 0,9.228 V 4.995 C 0.571,5.023 1.095,5.049 1.573,5.073 2.05,5.097 2.464,5.119 2.816,5.136 3.168,5.153 3.452,5.167 3.668,5.178 3.883,5.189 4.016,5.194 4.065,5.194 4.26,5.194 4.358,5.089 4.358,4.88 4.358,4.747 4.351,4.612 4.337,4.472 4.323,4.333 4.305,4.183 4.285,4.023 L 0,4.169 Z" /></g><g
           transform="translate(51.5295,9.572)"
           id="g36"><path
             id="path38"
             style="fill:#000000;fill-opacity:1;fill-rule:nonzero;stroke:none"
             d="m 0,0 c -0.07,0.383 -0.183,0.712 -0.34,0.987 -0.157,0.275 -0.35,0.503 -0.58,0.685 -0.229,0.181 -0.489,0.315 -0.778,0.402 -0.29,0.087 -0.601,0.131 -0.936,0.131 -0.327,0 -0.641,-0.041 -0.94,-0.12 C -3.874,2.005 -4.138,1.877 -4.369,1.704 -4.598,1.529 -4.781,1.306 -4.917,1.034 -5.053,0.763 -5.121,0.439 -5.121,0.063 c 0,-0.334 0.08,-0.622 0.24,-0.862 0.161,-0.241 0.375,-0.45 0.644,-0.628 0.268,-0.177 0.575,-0.336 0.924,-0.475 0.348,-0.139 0.711,-0.278 1.087,-0.418 0.418,-0.16 0.836,-0.332 1.254,-0.517 0.418,-0.185 0.792,-0.41 1.124,-0.674 0.33,-0.265 0.598,-0.585 0.804,-0.961 0.205,-0.377 0.308,-0.84 0.308,-1.39 0,-0.481 -0.068,-0.906 -0.203,-1.275 C 0.925,-7.507 0.737,-7.829 0.496,-8.104 0.255,-8.379 -0.025,-8.611 -0.345,-8.799 -0.666,-8.987 -1.01,-9.139 -1.38,-9.254 -1.749,-9.368 -2.134,-9.45 -2.534,-9.499 -2.935,-9.548 -3.33,-9.572 -3.72,-9.572 c -0.467,0 -0.933,0.027 -1.395,0.083 -0.463,0.056 -0.925,0.136 -1.385,0.241 -0.063,0.014 -0.113,0.043 -0.152,0.089 -0.038,0.045 -0.061,0.092 -0.068,0.141 -0.014,0.146 -0.027,0.36 -0.041,0.642 -0.014,0.282 -0.026,0.57 -0.036,0.862 -0.011,0.293 -0.02,0.558 -0.027,0.795 -0.007,0.236 -0.011,0.376 -0.011,0.417 l 0.523,0.053 c 0.049,-0.419 0.159,-0.781 0.329,-1.087 0.171,-0.307 0.387,-0.559 0.648,-0.758 0.262,-0.199 0.56,-0.344 0.899,-0.439 0.338,-0.094 0.701,-0.14 1.091,-0.14 0.349,0 0.687,0.04 1.014,0.119 0.327,0.081 0.618,0.21 0.873,0.387 0.254,0.178 0.458,0.406 0.611,0.685 0.154,0.278 0.23,0.616 0.23,1.013 0,0.328 -0.08,0.607 -0.241,0.836 -0.159,0.23 -0.374,0.434 -0.642,0.612 -0.268,0.177 -0.574,0.335 -0.92,0.475 -0.344,0.14 -0.701,0.282 -1.071,0.428 -0.417,0.168 -0.835,0.347 -1.254,0.538 -0.417,0.192 -0.792,0.424 -1.123,0.696 -0.331,0.271 -0.599,0.6 -0.805,0.988 -0.206,0.386 -0.308,0.862 -0.308,1.426 0,0.682 0.134,1.253 0.402,1.714 0.268,0.46 0.621,0.829 1.056,1.107 0.435,0.279 0.93,0.477 1.484,0.596 0.554,0.118 1.12,0.178 1.698,0.178 0.383,0 0.801,-0.03 1.254,-0.089 C -0.634,2.976 -0.209,2.898 0.188,2.801 0.251,2.786 0.301,2.757 0.339,2.712 0.377,2.666 0.4,2.619 0.407,2.57 0.421,2.424 0.435,2.22 0.449,1.959 0.463,1.698 0.477,1.433 0.491,1.165 0.505,0.897 0.516,0.655 0.522,0.439 0.529,0.222 0.533,0.094 0.533,0.052 Z" /></g><g
           transform="translate(60.4538,11.8504)"
           id="g40"><path
             id="path42"
             style="fill:#000000;fill-opacity:1;fill-rule:nonzero;stroke:none"
             d="m 0,0 c -0.683,0 -1.268,-0.14 -1.756,-0.419 -0.487,-0.278 -0.886,-0.651 -1.196,-1.118 -0.311,-0.467 -0.539,-1.003 -0.685,-1.609 -0.146,-0.606 -0.22,-1.236 -0.22,-1.891 0,-0.732 0.079,-1.453 0.236,-2.163 0.157,-0.711 0.405,-1.345 0.747,-1.902 0.341,-0.558 0.784,-1.009 1.328,-1.354 0.542,-0.344 1.197,-0.517 1.963,-0.517 0.683,0 1.268,0.144 1.756,0.434 0.487,0.289 0.886,0.672 1.197,1.149 0.31,0.477 0.538,1.024 0.684,1.641 0.147,0.616 0.22,1.252 0.22,1.907 0,0.732 -0.079,1.447 -0.235,2.147 -0.157,0.7 -0.406,1.324 -0.748,1.871 C 2.95,-1.277 2.508,-0.836 1.965,-0.502 1.421,-0.168 0.766,0 0,0 M 0.522,0.878 C 1.421,0.878 2.233,0.738 2.957,0.46 3.682,0.181 4.3,-0.221 4.812,-0.747 5.324,-1.274 5.719,-1.92 5.998,-2.686 6.276,-3.452 6.416,-4.32 6.416,-5.288 6.416,-6.347 6.26,-7.284 5.951,-8.099 5.641,-8.914 5.2,-9.599 4.629,-10.152 4.057,-10.707 3.37,-11.128 2.566,-11.417 1.761,-11.706 0.863,-11.85 -0.125,-11.85 c -0.899,0 -1.713,0.144 -2.441,0.433 -0.727,0.289 -1.348,0.702 -1.86,1.238 -0.512,0.536 -0.906,1.192 -1.181,1.965 -0.275,0.773 -0.413,1.647 -0.413,2.623 0,1.051 0.155,1.982 0.465,2.79 0.311,0.808 0.751,1.484 1.323,2.027 0.57,0.544 1.259,0.955 2.063,1.234 0.805,0.278 1.701,0.418 2.691,0.418" /></g><g
           transform="translate(70.7477,11.5676)"
           id="g44"><path
             id="path46"
             style="fill:#000000;fill-opacity:1;fill-rule:nonzero;stroke:none"
             d="M 0,0 C -0.453,0 -0.827,-0.012 -1.123,-0.036 -1.42,-0.06 -1.665,-0.141 -1.86,-0.276 -2.055,-0.413 -2.217,-0.627 -2.346,-0.919 -2.475,-1.212 -2.598,-1.623 -2.717,-2.152 L -3.239,-2.1 c 0,0.028 10e-4,0.104 0.005,0.23 0.003,0.125 0.01,0.275 0.02,0.449 0.011,0.174 0.022,0.366 0.032,0.575 0.011,0.209 0.023,0.413 0.037,0.611 0.014,0.199 0.027,0.383 0.041,0.554 0.014,0.17 0.028,0.305 0.042,0.402 0.007,0.105 0.07,0.157 0.188,0.157 0.634,-0.014 1.24,-0.024 1.819,-0.031 0.578,-0.008 1.111,-0.011 1.598,-0.011 h 3.48 c 0.488,0 1.025,0.003 1.61,0.011 0.585,0.007 1.194,0.017 1.828,0.031 0.098,0 0.154,-0.052 0.168,-0.157 C 7.642,0.624 7.655,0.489 7.665,0.319 7.676,0.148 7.686,-0.036 7.697,-0.235 7.707,-0.433 7.715,-0.637 7.723,-0.846 7.73,-1.055 7.735,-1.247 7.738,-1.421 7.742,-1.595 7.745,-1.745 7.749,-1.87 7.752,-1.996 7.754,-2.072 7.754,-2.1 L 7.231,-2.152 C 7.113,-1.623 6.993,-1.212 6.871,-0.919 6.749,-0.627 6.594,-0.413 6.406,-0.276 6.218,-0.141 5.979,-0.06 5.69,-0.036 5.401,-0.012 5.027,0 4.566,0 H 3.229 v -10.983 c 0,-0.167 -0.083,-0.264 -0.25,-0.293 -0.119,-0.02 -0.25,-0.04 -0.393,-0.057 -0.142,-0.017 -0.281,-0.031 -0.418,-0.042 -0.135,-0.01 -0.261,-0.017 -0.376,-0.02 -0.115,-0.004 -0.2,-0.006 -0.256,-0.006 -0.167,0 -0.25,0.088 -0.25,0.262 L 1.286,0 Z" /></g><g
           transform="translate(86.2972,9.572)"
           id="g48"><path
             id="path50"
             style="fill:#000000;fill-opacity:1;fill-rule:nonzero;stroke:none"
             d="m 0,0 c -0.07,0.383 -0.183,0.712 -0.34,0.987 -0.157,0.275 -0.35,0.503 -0.58,0.685 -0.229,0.181 -0.489,0.315 -0.778,0.402 -0.289,0.087 -0.601,0.131 -0.936,0.131 -0.327,0 -0.64,-0.041 -0.94,-0.12 -0.3,-0.08 -0.564,-0.208 -0.794,-0.381 -0.23,-0.175 -0.413,-0.398 -0.549,-0.67 -0.135,-0.271 -0.204,-0.595 -0.204,-0.971 0,-0.334 0.081,-0.622 0.241,-0.862 0.16,-0.241 0.375,-0.45 0.643,-0.628 0.268,-0.177 0.576,-0.336 0.924,-0.475 0.349,-0.139 0.711,-0.278 1.087,-0.418 0.418,-0.16 0.836,-0.332 1.254,-0.517 0.418,-0.185 0.792,-0.41 1.124,-0.674 0.33,-0.265 0.599,-0.585 0.804,-0.961 0.205,-0.377 0.309,-0.84 0.309,-1.39 0,-0.481 -0.068,-0.906 -0.204,-1.275 -0.136,-0.37 -0.324,-0.692 -0.564,-0.967 -0.241,-0.275 -0.522,-0.507 -0.842,-0.695 -0.32,-0.188 -0.665,-0.34 -1.034,-0.455 -0.37,-0.114 -0.755,-0.196 -1.155,-0.245 -0.401,-0.049 -0.796,-0.073 -1.186,-0.073 -0.467,0 -0.932,0.027 -1.395,0.083 -0.463,0.056 -0.925,0.136 -1.385,0.241 -0.063,0.014 -0.113,0.043 -0.151,0.089 -0.039,0.045 -0.062,0.092 -0.068,0.141 -0.014,0.146 -0.028,0.36 -0.042,0.642 -0.014,0.282 -0.026,0.57 -0.036,0.862 -0.011,0.293 -0.02,0.558 -0.027,0.795 -0.007,0.236 -0.01,0.376 -0.01,0.417 l 0.522,0.053 c 0.049,-0.419 0.159,-0.781 0.329,-1.087 0.171,-0.307 0.387,-0.559 0.649,-0.758 0.261,-0.199 0.56,-0.344 0.898,-0.439 0.338,-0.094 0.702,-0.14 1.092,-0.14 0.348,0 0.686,0.04 1.014,0.119 0.327,0.081 0.618,0.21 0.872,0.387 0.254,0.178 0.458,0.406 0.611,0.685 0.154,0.278 0.231,0.616 0.231,1.013 0,0.328 -0.081,0.607 -0.241,0.836 -0.16,0.23 -0.375,0.434 -0.643,0.612 -0.268,0.177 -0.574,0.335 -0.919,0.475 -0.345,0.14 -0.702,0.282 -1.071,0.428 -0.418,0.168 -0.836,0.347 -1.254,0.538 -0.418,0.192 -0.793,0.424 -1.124,0.696 -0.331,0.271 -0.599,0.6 -0.804,0.988 -0.206,0.386 -0.309,0.862 -0.309,1.426 0,0.682 0.134,1.253 0.403,1.714 0.268,0.46 0.62,0.829 1.055,1.107 0.435,0.279 0.93,0.477 1.484,0.596 0.554,0.118 1.12,0.178 1.699,0.178 0.382,0 0.801,-0.03 1.253,-0.089 C -0.634,2.976 -0.209,2.898 0.188,2.801 0.251,2.786 0.301,2.757 0.34,2.712 0.378,2.666 0.401,2.619 0.408,2.57 0.421,2.424 0.436,2.22 0.449,1.959 0.463,1.698 0.477,1.433 0.491,1.165 0.505,0.897 0.516,0.655 0.522,0.439 0.529,0.222 0.533,0.094 0.533,0.052 Z" /></g><g
           transform="translate(88.6903,12.2677)"
           id="g52"><path
             id="path54"
             style="fill:#000000;fill-opacity:1;fill-rule:nonzero;stroke:none"
             d="m 0,0 c 0.376,0.07 0.733,0.129 1.071,0.178 0.338,0.049 0.638,0.087 0.899,0.115 0.261,0.027 0.479,0.049 0.653,0.063 0.174,0.013 0.285,0.02 0.334,0.02 0.223,0 0.335,-0.111 0.335,-0.334 v -5.581 l 5.141,5.383 c 0.14,0.153 0.3,0.254 0.481,0.303 0.097,0.027 0.212,0.05 0.345,0.067 0.132,0.018 0.266,0.03 0.402,0.037 0.136,0.007 0.262,0.012 0.376,0.016 0.115,0.003 0.204,0.005 0.266,0.005 0.077,0 0.133,-0.019 0.168,-0.058 0.035,-0.038 0.052,-0.082 0.052,-0.13 0,-0.056 -0.021,-0.105 -0.063,-0.147 l -5.183,-4.879 5.549,-6.709 c 0.035,-0.056 0.053,-0.094 0.053,-0.116 0,-0.048 -0.021,-0.092 -0.063,-0.13 -0.042,-0.038 -0.094,-0.065 -0.157,-0.079 -0.118,-0.02 -0.27,-0.04 -0.455,-0.057 -0.184,-0.017 -0.369,-0.031 -0.553,-0.042 -0.185,-0.01 -0.352,-0.017 -0.502,-0.021 -0.15,-0.003 -0.249,-0.005 -0.298,-0.005 -0.167,0 -0.296,0.062 -0.386,0.188 l -5.173,6.364 v -6.134 c 0,-0.167 -0.084,-0.264 -0.251,-0.293 -0.118,-0.02 -0.249,-0.04 -0.392,-0.057 -0.143,-0.017 -0.282,-0.031 -0.418,-0.042 -0.136,-0.01 -0.261,-0.017 -0.376,-0.021 -0.115,-0.003 -0.2,-0.005 -0.256,-0.005 -0.167,0 -0.251,0.088 -0.251,0.261 v 10.346 c 0,0.195 -0.019,0.354 -0.057,0.476 -0.039,0.121 -0.094,0.217 -0.168,0.287 -0.073,0.07 -0.16,0.118 -0.261,0.146 -0.101,0.028 -0.214,0.042 -0.339,0.042 -0.154,0 -0.307,-0.011 -0.46,-0.032 z" /></g><g
           transform="translate(102.1496,12.6441)"
           id="g56"><path
             id="path58"
             style="fill:#000000;fill-opacity:1;fill-rule:nonzero;stroke:none"
             d="m 0,0 c 0.104,0 0.188,-0.031 0.251,-0.094 0.063,-0.062 0.125,-0.153 0.188,-0.271 l 2.968,-5.33 2.528,5.152 c 0.043,0.083 0.088,0.15 0.137,0.199 0.048,0.048 0.121,0.086 0.219,0.114 0.098,0.028 0.202,0.049 0.313,0.063 0.112,0.014 0.22,0.026 0.325,0.036 0.104,0.011 0.2,0.018 0.287,0.022 0.087,0.003 0.155,0.005 0.204,0.005 0.125,0 0.188,-0.042 0.188,-0.126 0,-0.028 -0.007,-0.056 -0.021,-0.084 C 7.573,-0.341 7.559,-0.373 7.545,-0.407 L 3.793,-6.698 v -5.361 c 0,-0.168 -0.083,-0.265 -0.251,-0.293 -0.118,-0.021 -0.249,-0.04 -0.391,-0.057 -0.143,-0.017 -0.282,-0.032 -0.418,-0.042 -0.136,-0.011 -0.261,-0.017 -0.376,-0.021 -0.116,-0.003 -0.201,-0.006 -0.257,-0.006 -0.167,0 -0.25,0.088 -0.25,0.262 v 5.329 l -2.895,5.163 c -0.174,0.313 -0.338,0.531 -0.491,0.653 -0.153,0.122 -0.342,0.183 -0.564,0.183 -0.056,0 -0.119,-0.005 -0.189,-0.016 -0.069,-0.011 -0.149,-0.023 -0.24,-0.037 l -0.062,0.576 c 0.306,0.062 0.604,0.116 0.893,0.161 0.289,0.045 0.552,0.084 0.789,0.115 0.237,0.032 0.435,0.054 0.595,0.068 C -0.153,-0.007 -0.048,0 0,0" /></g><g
           transform="translate(110.5095,12.2677)"
           id="g60"><path
             id="path62"
             style="fill:#000000;fill-opacity:1;fill-rule:nonzero;stroke:none"
             d="m 0,0 c 0.376,0.07 0.733,0.129 1.071,0.178 0.338,0.049 0.638,0.087 0.899,0.115 0.261,0.027 0.479,0.049 0.653,0.063 0.174,0.013 0.285,0.02 0.334,0.02 0.223,0 0.335,-0.111 0.335,-0.334 v -11.725 c 0,-0.167 -0.084,-0.264 -0.251,-0.293 -0.118,-0.02 -0.249,-0.04 -0.392,-0.057 -0.143,-0.017 -0.282,-0.031 -0.418,-0.042 -0.136,-0.01 -0.261,-0.017 -0.376,-0.021 -0.115,-0.003 -0.2,-0.005 -0.256,-0.005 -0.167,0 -0.251,0.088 -0.251,0.261 v 10.346 c 0,0.195 -0.019,0.354 -0.057,0.476 -0.039,0.121 -0.094,0.217 -0.168,0.287 -0.073,0.07 -0.16,0.118 -0.261,0.146 -0.101,0.028 -0.214,0.042 -0.339,0.042 -0.154,0 -0.307,-0.011 -0.46,-0.032 z" /></g><g
           transform="translate(70.6186,70.0489)"
           id="g64"><path
             id="path66"
             style="fill:#f4772c;fill-opacity:1;fill-rule:nonzero;stroke:none"
             d="m 0,0 c 0.178,0.5 0.599,0.841 1.263,1.023 0.356,0.092 0.739,0.16 1.148,0.205 0.407,0.046 0.803,0.086 1.186,0.12 0.382,0.034 0.732,0.057 1.052,0.068 0.318,0.011 0.567,0.017 0.746,0.017 0.28,0 0.465,-0.04 0.554,-0.119 C 6.039,1.234 6.084,1.137 6.084,1.023 6.084,0.932 6.02,0.739 5.893,0.444 5.244,-0.939 4.595,-2.321 3.947,-3.703 c -5.41,-11.529 -10.82,-23.058 -16.229,-34.587 -0.22,-0.417 -0.482,-0.585 -0.651,-0.614 -0.128,-0.023 -0.338,-0.046 -0.631,-0.069 -0.294,-0.023 -0.601,-0.039 -0.919,-0.051 -0.319,-0.011 -0.625,-0.022 -0.918,-0.034 -0.294,-0.012 -0.492,-0.018 -0.594,-0.018 -0.152,0 -0.299,0.035 -0.439,0.103 -0.141,0.069 -0.262,0.217 -0.364,0.444 l -15.076,34.638 c -0.459,1.069 -1.001,1.786 -1.626,2.151 -0.625,0.363 -1.346,0.545 -2.162,0.545 -0.255,0 -0.516,-0.011 -0.784,-0.033 -0.268,-0.024 -0.555,-0.058 -0.861,-0.103 l -0.229,1.877 c 1.122,0.205 2.244,0.381 3.367,0.529 1.121,0.148 2.148,0.273 3.08,0.375 0.931,0.102 1.715,0.182 2.353,0.239 0.637,0.057 1.046,0.085 1.224,0.085 0.383,0 0.664,-0.108 0.842,-0.324 0.178,-0.216 0.357,-0.518 0.536,-0.904 l 13.661,-31.772 h 0.152 z" /></g><g
           transform="translate(36.7131,20.2309)"
           id="g68"><path
             id="path70"
             style="fill:#f4772c;fill-opacity:1;fill-rule:nonzero;stroke:none"
             d="m 0,0 14.863,13.079 8.85,5.31 c 0.481,0.288 0.903,0.664 1.245,1.109 l 0.176,0.226 c 0.717,0.93 1.638,1.681 2.694,2.195 0.614,0.299 1.331,0.303 1.948,0.01 l 0.464,-0.221 c 0.785,-0.372 1.444,-0.964 1.899,-1.704 l 2.473,-4.019 -3.897,0.198 -2.573,-3.874 C 26.037,9.14 22.691,7.007 18.93,6.438 L 14.432,5.757 C 13.269,5.581 12.221,4.956 11.513,4.015 L 6.209,-3.038 c -1.174,0 -1.866,1.317 -1.2,2.284 l 1.795,2.603 -3.001,-2 C 2.58,-0.966 0.939,-0.727 0,0.405" /></g><g
           transform="translate(58.1662,26.8733)"
           id="g72"><path
             id="path74"
             style="fill:#f4772c;fill-opacity:1;fill-rule:nonzero;stroke:none"
             d="M 0,0 H 4.166 C 4.61,0 4.891,-0.476 4.678,-0.865 L 4.669,-0.881 C 4.274,-1.6 3.519,-2.048 2.699,-2.048 H 1.784 L 2.339,-3.159 C 2.495,-3.47 2.577,-3.814 2.577,-4.163 v -1.385 l -1.314,0.64 C 0.49,-4.532 0,-3.748 0,-2.889 Z" /></g></g></g></g></svg>