<?xml version="1.0" encoding="UTF-8" standalone="no"?>
<svg
   xmlns:dc="http://purl.org/dc/elements/1.1/"
   xmlns:cc="http://creativecommons.org/ns#"
   xmlns:rdf="http://www.w3.org/1999/02/22-rdf-syntax-ns#"
   xmlns:svg="http://www.w3.org/2000/svg"
   xmlns="http://www.w3.org/2000/svg"
   viewBox="0 0 113.43853 37.916668"
   height="37.916668"
   width="113.43853"
   xml:space="preserve"
   id="svg2"
   version="1.1"><metadata
     id="metadata8"><rdf:RDF><cc:Work
         rdf:about=""><dc:format>image/svg+xml</dc:format><dc:type
           rdf:resource="http://purl.org/dc/dcmitype/StillImage" /></cc:Work></rdf:RDF></metadata><defs
     id="defs6"><clipPath
       id="clipPath18"
       clipPathUnits="userSpaceOnUse"><path
         id="path16"
         d="M 0,28.437 H 85.079 V 0 H 0 Z" /></clipPath></defs><g
     transform="matrix(1.3333333,0,0,-1.3333333,0,37.916667)"
     id="g10"><g
       id="g12"><g
         clip-path="url(#clipPath18)"
         id="g14"><g
           transform="translate(3.7274,24.6864)"
           id="g20"><path
             id="path22"
             style="fill:#c72026;fill-opacity:1;fill-rule:nonzero;stroke:none"
             d="m 0,0 c -0.032,-0.361 -0.065,-0.722 -0.096,-1.083 -0.137,-1.606 -0.275,-3.212 -0.411,-4.818 -0.107,-1.255 -0.213,-2.51 -0.312,-3.766 -0.012,-0.158 -0.055,-0.208 -0.221,-0.205 -0.712,0.011 -1.425,0.007 -2.137,0.002 -0.128,-0.001 -0.165,0.018 -0.152,0.163 0.175,2.013 0.34,4.028 0.512,6.041 0.182,2.14 0.368,4.279 0.552,6.418 0.017,0.201 0.036,0.401 0.044,0.602 0.005,0.101 0.031,0.14 0.141,0.14 1.255,-0.004 2.509,-0.004 3.764,0 0.104,0 0.136,-0.031 0.147,-0.135 0.225,-2.243 0.454,-4.485 0.684,-6.728 0.039,-0.382 0.08,-0.764 0.121,-1.149 0.058,0.018 0.052,0.073 0.064,0.117 0.705,2.57 1.41,5.141 2.109,7.714 0.038,0.142 0.091,0.183 0.236,0.182 1.217,-0.006 2.433,-0.007 3.65,0 C 8.847,3.496 8.863,3.453 8.851,3.316 8.737,2.043 8.632,0.769 8.523,-0.504 8.416,-1.766 8.306,-3.026 8.199,-4.288 8.092,-5.536 7.987,-6.785 7.881,-8.033 7.832,-8.61 7.779,-9.187 7.734,-9.765 7.727,-9.847 7.701,-9.869 7.622,-9.869 6.859,-9.867 6.096,-9.865 5.333,-9.87 5.204,-9.871 5.229,-9.793 5.235,-9.723 c 0.041,0.496 0.085,0.992 0.127,1.488 0.083,0.978 0.166,1.957 0.25,2.935 0.095,1.117 0.192,2.234 0.288,3.35 0.057,0.677 0.113,1.354 0.141,2.037 C 5.886,-0.479 5.73,-1.044 5.575,-1.61 4.838,-4.309 4.099,-7.007 3.365,-9.707 3.331,-9.833 3.282,-9.873 3.149,-9.871 2.507,-9.863 1.864,-9.864 1.22,-9.87 1.095,-9.872 1.049,-9.84 1.036,-9.708 0.827,-7.627 0.612,-5.548 0.399,-3.469 0.283,-2.342 0.168,-1.214 0.052,-0.086 0.049,-0.056 0.044,-0.025 0.04,0.005 0.027,0.003 0.013,0.002 0,0" /></g><g
           transform="translate(45.8476,23.0116)"
           id="g24"><path
             id="path26"
             style="fill:#c72026;fill-opacity:1;fill-rule:nonzero;stroke:none"
             d="M 0,0 C 0.075,0.15 0.128,0.267 0.19,0.379 0.288,0.555 0.383,0.733 0.495,0.9 1.073,1.758 1.912,1.945 2.806,1.42 2.871,1.383 2.934,1.342 3.009,1.295 3.148,1.682 3.284,2.059 3.463,2.418 4.017,3.531 4.774,4.461 5.936,4.967 7.27,5.547 8.636,5.591 9.989,5.02 10.74,4.703 11.216,4.097 11.568,3.384 11.874,2.764 12.043,2.101 12.171,1.426 12.196,1.293 12.172,1.23 12.027,1.189 11.229,0.961 10.434,0.724 9.64,0.481 9.489,0.436 9.426,0.44 9.404,0.623 9.367,0.942 9.281,1.251 9.114,1.533 8.628,2.357 7.688,2.566 6.906,2.009 6.416,1.66 6.123,1.164 5.931,0.605 5.658,-0.188 5.573,-1.015 5.517,-1.845 5.47,-2.537 5.455,-3.229 5.591,-3.915 5.694,-4.434 5.91,-4.889 6.396,-5.154 c 0.611,-0.333 1.472,-0.178 1.944,0.343 0.438,0.484 0.65,1.084 0.839,1.693 0.037,0.119 0.066,0.242 0.103,0.38 0.178,-0.075 0.351,-0.148 0.523,-0.221 0.637,-0.269 1.274,-0.538 1.911,-0.807 0.073,-0.03 0.153,-0.045 0.119,-0.167 C 11.501,-5.134 11.034,-6.266 10.16,-7.187 9.427,-7.958 8.521,-8.353 7.462,-8.417 6.836,-8.454 6.217,-8.421 5.604,-8.285 4.428,-8.023 3.673,-7.272 3.16,-6.219 c -0.489,1.005 -0.687,2.07 -0.716,3.177 -0.024,0.967 0.076,1.924 0.202,2.88 0.005,0.041 0.05,0.075 0.027,0.123 C 2.616,-0.035 2.619,-0.08 2.604,-0.117 2.441,-0.525 2.272,-0.931 2.114,-1.342 2.071,-1.454 2.027,-1.449 1.942,-1.394 1.868,-1.346 1.787,-1.309 1.706,-1.275 1.263,-1.091 0.877,-1.192 0.583,-1.574 0.271,-1.979 0.144,-2.46 0.032,-2.946 c -0.2,-0.874 -0.265,-1.767 -0.341,-2.658 -0.069,-0.802 -0.137,-1.605 -0.2,-2.409 -0.01,-0.141 -0.056,-0.185 -0.203,-0.184 -0.794,0.009 -1.588,0.009 -2.382,10e-4 -0.155,-0.002 -0.183,0.041 -0.17,0.188 0.114,1.285 0.22,2.572 0.329,3.858 0.106,1.242 0.212,2.484 0.318,3.727 0.05,0.595 0.105,1.191 0.148,1.788 0.009,0.118 0.061,0.128 0.155,0.127 C -1.558,1.49 -0.801,1.488 -0.045,1.494 0.084,1.495 0.115,1.458 0.102,1.334 0.062,0.978 0.032,0.62 0.001,0.262 -0.005,0.19 0,0.116 0,0" /></g><g
           transform="translate(8.6637,5.0458)"
           id="g28"><path
             id="path30"
             style="fill:#f09620;fill-opacity:1;fill-rule:nonzero;stroke:none"
             d="m 0,0 c -0.034,-1.424 -0.429,-2.716 -1.407,-3.788 -0.677,-0.741 -1.541,-1.111 -2.526,-1.219 -0.675,-0.074 -1.345,-0.039 -2.012,0.084 -1.23,0.227 -1.995,0.964 -2.38,2.137 -0.236,0.721 -0.32,1.46 -0.339,2.212 -0.003,0.143 0.057,0.192 0.195,0.202 0.841,0.068 1.681,0.138 2.521,0.216 0.124,0.012 0.115,-0.047 0.118,-0.128 0.011,-0.404 0.049,-0.805 0.191,-1.188 0.32,-0.857 1.214,-1.214 1.981,-0.772 0.501,0.288 0.728,0.761 0.735,1.325 0.007,0.529 -0.241,0.922 -0.712,1.178 -0.417,0.227 -0.872,0.356 -1.315,0.517 -0.445,0.161 -0.872,0.357 -1.277,0.604 -0.991,0.603 -1.542,1.482 -1.634,2.636 -0.086,1.078 0.132,2.095 0.71,3.017 0.548,0.875 1.333,1.431 2.349,1.638 0.829,0.17 1.665,0.187 2.494,0.005 C -1.034,8.395 -0.321,7.566 -0.05,6.319 0.05,5.863 0.092,5.399 0.104,4.933 0.106,4.827 0.07,4.794 -0.034,4.786 -0.876,4.724 -1.717,4.658 -2.557,4.584 -2.673,4.574 -2.698,4.605 -2.706,4.708 -2.729,5.002 -2.767,5.295 -2.88,5.573 -3.091,6.093 -3.552,6.358 -4.138,6.292 -4.664,6.233 -5.027,5.871 -5.102,5.312 -5.148,4.971 -5.027,4.692 -4.734,4.501 -4.429,4.302 -4.078,4.218 -3.737,4.107 -3.156,3.918 -2.587,3.703 -2.036,3.437 -0.642,2.766 -0.017,1.626 0,0.114 0,0.076 0,0.038 0,0" /></g><g
           transform="translate(50.1501,5.7914)"
           id="g32"><path
             id="path34"
             style="fill:#f09620;fill-opacity:1;fill-rule:nonzero;stroke:none"
             d="m 0,0 c -0.002,-0.506 0.017,-1.01 0.156,-1.499 0.164,-0.573 0.477,-1.032 1.102,-1.144 0.667,-0.119 1.235,0.08 1.641,0.65 0.372,0.522 0.568,1.119 0.725,1.731 0.037,0.145 0.077,0.165 0.21,0.105 0.724,-0.324 1.451,-0.64 2.177,-0.957 C 6.1,-1.152 6.163,-1.185 6.13,-1.305 5.847,-2.344 5.464,-3.336 4.801,-4.202 4.018,-5.224 2.983,-5.747 1.702,-5.787 1.146,-5.804 0.595,-5.758 0.053,-5.625 c -1.113,0.272 -1.807,1.012 -2.288,2.007 -0.517,1.072 -0.71,2.21 -0.716,3.389 -0.006,1.475 0.153,2.928 0.609,4.338 0.322,0.995 0.799,1.903 1.55,2.648 C 0.257,7.796 1.54,8.147 2.98,8.03 4.235,7.927 5.189,7.357 5.778,6.223 6.023,5.75 6.195,5.251 6.316,4.735 6.371,4.503 6.411,4.267 6.462,4.033 6.486,3.927 6.457,3.88 6.346,3.847 5.562,3.613 4.78,3.375 4.001,3.126 3.848,3.078 3.806,3.112 3.787,3.26 3.744,3.6 3.658,3.926 3.479,4.224 2.99,5.039 2.023,5.207 1.292,4.595 0.783,4.17 0.511,3.601 0.344,2.975 0.084,2 0.024,1.002 0,0" /></g><g
           transform="translate(77.0131,20.1274)"
           id="g36"><path
             id="path38"
             style="fill:#c72026;fill-opacity:1;fill-rule:nonzero;stroke:none"
             d="M 0,0 C -0.009,0.542 -0.046,1.03 -0.363,1.445 -0.7,1.886 -1.26,1.937 -1.67,1.564 -1.884,1.369 -2.032,1.129 -2.123,0.856 -2.375,0.093 -2.451,-0.692 -2.4,-1.491 c 0.019,-0.303 0.082,-0.598 0.243,-0.863 0.316,-0.521 0.883,-0.612 1.348,-0.214 0.236,0.201 0.397,0.453 0.504,0.741 C -0.08,-1.222 -0.024,-0.591 0,0 M 0.285,3.45 C 0.355,4.272 0.422,5.042 0.488,5.812 0.548,6.514 0.612,7.216 0.667,7.919 0.675,8.026 0.707,8.053 0.81,8.053 1.642,8.049 2.474,8.047 3.306,8.054 3.439,8.055 3.444,8.001 3.435,7.898 3.351,6.951 3.269,6.004 3.188,5.057 3.095,3.978 3.003,2.899 2.912,1.82 2.806,0.56 2.701,-0.701 2.595,-1.962 2.509,-2.979 2.421,-3.995 2.336,-5.011 2.311,-5.308 2.313,-5.309 2.018,-5.309 c -0.699,0 -1.399,0.005 -2.099,-0.003 -0.156,-0.002 -0.179,0.041 -0.162,0.188 0.043,0.38 0.065,0.763 0.099,1.196 -0.245,-0.323 -0.452,-0.613 -0.697,-0.871 -0.784,-0.827 -2.128,-0.985 -2.998,-0.34 -0.508,0.377 -0.77,0.92 -0.967,1.499 -0.322,0.952 -0.39,1.935 -0.332,2.928 0.058,1.015 0.209,2.014 0.595,2.965 0.299,0.737 0.73,1.379 1.377,1.856 0.802,0.591 1.902,0.649 2.682,0.151 0.308,-0.196 0.541,-0.468 0.769,-0.81" /></g><g
           transform="translate(69.7262,5.6069)"
           id="g40"><path
             id="path42"
             style="fill:#f09620;fill-opacity:1;fill-rule:nonzero;stroke:none"
             d="M 0,0 C -0.006,0.128 -0.004,0.293 -0.022,0.456 -0.062,0.803 -0.143,1.138 -0.369,1.419 -0.711,1.843 -1.233,1.876 -1.624,1.499 -1.832,1.297 -1.972,1.053 -2.059,0.779 -2.306,0 -2.366,-0.8 -2.314,-1.61 c 0.019,-0.289 0.091,-0.57 0.247,-0.825 0.306,-0.497 0.868,-0.575 1.298,-0.175 0.196,0.183 0.346,0.399 0.444,0.649 C -0.082,-1.342 -0.024,-0.691 0,0 m -0.134,-3.983 c -0.166,-0.223 -0.307,-0.421 -0.457,-0.612 -0.358,-0.459 -0.797,-0.803 -1.377,-0.936 -1.054,-0.24 -1.962,0.219 -2.437,1.241 -0.419,0.902 -0.565,1.86 -0.568,2.847 -0.004,1.192 0.129,2.363 0.53,3.491 0.289,0.81 0.724,1.524 1.432,2.041 0.866,0.632 2.006,0.603 2.778,-0.063 C -0.04,3.86 0.105,3.654 0.274,3.407 0.305,3.758 0.334,4.07 0.36,4.382 0.453,5.524 0.547,6.666 0.634,7.809 0.646,7.957 0.692,8.008 0.848,8.006 1.617,7.998 2.386,8 3.155,8.005 3.287,8.006 3.328,7.972 3.316,7.836 3.23,6.826 3.152,5.815 3.069,4.806 3,3.971 2.928,3.137 2.859,2.303 2.76,1.117 2.662,-0.068 2.565,-1.254 2.485,-2.233 2.406,-3.212 2.328,-4.191 2.3,-4.536 2.271,-4.881 2.247,-5.227 2.24,-5.326 2.207,-5.37 2.099,-5.369 1.362,-5.365 0.624,-5.364 -0.113,-5.37 c -0.138,-0.001 -0.135,0.067 -0.126,0.165 0.035,0.394 0.068,0.789 0.105,1.222" /></g><g
           transform="translate(63.1762,19.394)"
           id="g44"><path
             id="path46"
             style="fill:#c72026;fill-opacity:1;fill-rule:nonzero;stroke:none"
             d="m 0,0 c -0.505,-0.239 -1.006,-0.399 -1.494,-0.592 -0.168,-0.067 -0.335,-0.144 -0.491,-0.235 -0.466,-0.269 -0.642,-0.691 -0.591,-1.21 0.045,-0.45 0.332,-0.696 0.784,-0.698 0.481,-0.001 0.857,0.227 1.169,0.565 C -0.061,-1.563 -0.07,-0.789 0,0 m -0.174,-3.449 c -0.189,-0.193 -0.362,-0.405 -0.57,-0.576 -0.943,-0.778 -2.026,-0.952 -3.178,-0.633 -0.788,0.218 -1.198,0.836 -1.364,1.598 -0.192,0.883 -0.067,1.741 0.36,2.544 0.375,0.706 1.022,1.056 1.75,1.28 0.738,0.227 1.494,0.398 2.228,0.64 0.342,0.113 0.668,0.259 0.991,0.416 0.089,0.044 0.134,0.094 0.133,0.2 C 0.172,2.17 0.183,2.321 0.156,2.472 0.082,2.899 -0.101,3.069 -0.533,3.105 -1.345,3.175 -1.833,2.881 -2.118,2.127 -2.172,1.982 -2.233,1.952 -2.374,1.973 -3.126,2.089 -3.88,2.198 -4.633,2.308 c -0.076,0.011 -0.135,0.016 -0.108,0.121 0.195,0.758 0.464,1.472 1.057,2.027 0.522,0.487 1.157,0.703 1.84,0.796 0.943,0.13 1.887,0.109 2.82,-0.078 C 1.886,4.991 2.44,4.42 2.675,3.526 2.883,2.732 2.85,1.932 2.774,1.125 2.669,0.004 2.579,-1.12 2.486,-2.242 2.447,-2.718 2.387,-3.194 2.444,-3.673 2.473,-3.924 2.52,-4.171 2.589,-4.413 2.62,-4.522 2.618,-4.58 2.47,-4.579 1.714,-4.571 0.958,-4.572 0.201,-4.578 0.08,-4.58 0.042,-4.532 0.01,-4.427 c -0.097,0.314 -0.143,0.634 -0.135,0.963 -0.017,0.005 -0.033,0.01 -0.049,0.015" /></g><g
           transform="translate(17.7399,19.3925)"
           id="g48"><path
             id="path50"
             style="fill:#c72026;fill-opacity:1;fill-rule:nonzero;stroke:none"
             d="m 0,0 c -0.469,-0.215 -0.928,-0.383 -1.387,-0.547 -0.213,-0.076 -0.418,-0.171 -0.614,-0.285 -0.301,-0.174 -0.482,-0.435 -0.558,-0.771 -0.183,-0.807 0.365,-1.322 1.153,-1.074 0.514,0.162 0.88,0.504 1.104,0.99 C -0.061,-1.162 -0.051,-0.593 0,0 m -0.163,-3.458 c -0.149,-0.15 -0.291,-0.307 -0.447,-0.451 -0.921,-0.847 -2.013,-1.049 -3.198,-0.785 -0.782,0.175 -1.235,0.738 -1.439,1.481 -0.26,0.952 -0.124,1.874 0.345,2.74 0.328,0.604 0.878,0.94 1.504,1.161 0.688,0.244 1.404,0.393 2.101,0.605 0.459,0.14 0.902,0.313 1.332,0.522 C 0.125,1.859 0.167,1.91 0.174,2.011 0.188,2.208 0.175,2.402 0.134,2.594 0.078,2.86 -0.087,3.036 -0.359,3.075 -1.298,3.209 -1.849,2.918 -2.116,2.135 -2.166,1.987 -2.225,1.949 -2.381,1.973 -3.133,2.093 -3.887,2.2 -4.64,2.312 -4.696,2.32 -4.774,2.297 -4.746,2.411 c 0.224,0.927 0.589,1.766 1.417,2.327 0.45,0.304 0.959,0.442 1.485,0.514 0.942,0.131 1.886,0.11 2.819,-0.078 C 1.973,4.973 2.513,4.316 2.719,3.344 2.866,2.645 2.848,1.944 2.783,1.239 2.678,0.116 2.588,-1.007 2.493,-2.13 2.468,-2.431 2.443,-2.732 2.424,-3.034 2.393,-3.51 2.465,-3.976 2.592,-4.433 2.621,-4.54 2.607,-4.577 2.487,-4.576 c -0.769,0.005 -1.538,0.005 -2.307,0 -0.105,-0.001 -0.137,0.045 -0.166,0.133 -0.101,0.314 -0.149,0.634 -0.177,0.985" /></g><g
           transform="translate(38.3481,20.5053)"
           id="g52"><path
             id="path54"
             style="fill:#c72026;fill-opacity:1;fill-rule:nonzero;stroke:none"
             d="M 0,0 C 0.403,0 0.806,0.002 1.209,-0.001 1.297,-0.002 1.354,0.009 1.348,0.118 1.326,0.514 1.318,0.911 1.176,1.288 0.883,2.066 0.002,2.26 -0.6,1.685 -1.054,1.25 -1.206,0.684 -1.319,0.098 -1.341,-0.02 -1.256,0 -1.19,0 -0.793,0 -0.397,0 0,0 m 1.231,-1.778 c -0.844,0 -1.689,-0.005 -2.533,0.005 -0.167,0.002 -0.202,-0.053 -0.19,-0.203 0.024,-0.333 0.044,-0.666 0.173,-0.98 0.345,-0.837 1.271,-1.03 1.927,-0.403 0.128,0.123 0.244,0.256 0.338,0.406 0.055,0.089 0.118,0.103 0.219,0.091 0.78,-0.1 1.561,-0.196 2.343,-0.287 C 3.653,-3.166 3.706,-3.19 3.619,-3.346 3.32,-3.881 2.991,-4.391 2.561,-4.833 2.06,-5.348 1.455,-5.656 0.757,-5.792 c -0.762,-0.15 -1.527,-0.161 -2.292,-0.037 -1.041,0.168 -1.729,0.784 -2.171,1.714 -0.412,0.867 -0.552,1.785 -0.52,2.735 0.034,1.021 0.197,2.016 0.631,2.95 0.494,1.06 1.195,1.932 2.32,2.364 C -0.177,4.354 0.94,4.326 2.029,3.913 2.927,3.571 3.434,2.842 3.745,1.965 4.034,1.15 4.073,0.303 4.055,-0.551 4.048,-0.903 4.011,-1.254 3.99,-1.606 3.981,-1.765 3.916,-1.781 3.784,-1.78 2.933,-1.775 2.082,-1.778 1.231,-1.778" /></g><g
           transform="translate(30.1896,1.7035)"
           id="g56"><path
             id="path58"
             style="fill:#f09620;fill-opacity:1;fill-rule:nonzero;stroke:none"
             d="m 0,0 c -0.35,-0.438 -0.678,-0.867 -1.111,-1.204 -0.69,-0.537 -1.801,-0.648 -2.496,-0.237 -0.581,0.343 -0.843,0.899 -0.976,1.528 -0.15,0.704 -0.124,1.414 -0.063,2.126 0.084,0.991 0.167,1.982 0.248,2.974 0.079,0.966 0.157,1.933 0.232,2.9 0.008,0.102 0.044,0.142 0.149,0.142 0.795,-0.004 1.589,-0.004 2.383,0 0.124,0 0.143,-0.042 0.134,-0.157 -0.113,-1.33 -0.222,-2.66 -0.329,-3.991 -0.046,-0.577 -0.122,-1.152 -0.115,-1.733 0.002,-0.197 0.021,-0.39 0.08,-0.578 0.165,-0.516 0.699,-0.708 1.156,-0.413 0.399,0.259 0.554,0.669 0.662,1.104 0.147,0.591 0.172,1.196 0.223,1.798 0.107,1.274 0.21,2.548 0.308,3.823 0.01,0.136 0.076,0.147 0.183,0.146 C 1.437,8.226 2.207,8.223 2.976,8.23 3.116,8.231 3.143,8.182 3.132,8.055 3.059,7.201 2.99,6.348 2.92,5.494 2.839,4.509 2.758,3.524 2.677,2.539 2.58,1.371 2.483,0.204 2.386,-0.963 2.384,-0.995 2.38,-1.026 2.378,-1.057 2.351,-1.464 2.351,-1.464 1.951,-1.464 c -0.636,0 -1.273,0.004 -1.91,-0.002 -0.139,-0.002 -0.166,0.04 -0.152,0.174 C -0.066,-0.862 -0.036,-0.431 0,0" /></g><g
           transform="translate(42.8102,5.9364)"
           id="g60"><path
             id="path62"
             style="fill:#f09620;fill-opacity:1;fill-rule:nonzero;stroke:none"
             d="M 0,0 C 0.391,0 0.781,0 1.172,0 1.245,-0.001 1.309,-0.005 1.307,0.102 1.298,0.531 1.284,0.96 1.113,1.362 0.983,1.666 0.776,1.89 0.442,1.975 -0.012,2.09 -0.448,1.902 -0.778,1.451 -1.073,1.048 -1.181,0.577 -1.275,0.1 -1.299,-0.02 -1.219,0 -1.153,0 -0.769,0 -0.384,0 0,0 M 3.603,-3.186 C 3.044,-4.241 2.447,-5.238 1.256,-5.648 0.231,-6.001 -0.821,-6.022 -1.867,-5.734 c -0.818,0.225 -1.326,0.812 -1.682,1.549 -0.387,0.804 -0.541,1.659 -0.537,2.545 0.005,1.249 0.199,2.459 0.792,3.577 0.543,1.021 1.299,1.814 2.451,2.126 0.897,0.244 1.801,0.21 2.678,-0.1 C 2.747,3.642 3.269,2.935 3.594,2.061 3.834,1.416 3.912,0.741 3.931,0.059 3.946,-0.47 3.924,-0.999 3.869,-1.526 3.843,-1.778 3.848,-1.778 3.591,-1.778 c -1.607,0 -3.214,-0.003 -4.821,0.005 -0.179,0 -0.222,-0.053 -0.211,-0.22 0.023,-0.366 0.052,-0.729 0.212,-1.067 0.416,-0.877 1.298,-0.787 1.808,-0.33 0.132,0.119 0.247,0.254 0.34,0.404 0.061,0.101 0.132,0.131 0.247,0.115 0.655,-0.087 1.311,-0.169 1.967,-0.252 0.148,-0.019 0.296,-0.04 0.47,-0.063" /></g><g
           transform="translate(13.0402,5.936)"
           id="g64"><path
             id="path66"
             style="fill:#f09620;fill-opacity:1;fill-rule:nonzero;stroke:none"
             d="M 0,0 C 0.384,0 0.768,0.005 1.152,-0.002 1.27,-0.005 1.302,0.031 1.3,0.146 1.292,0.506 1.271,0.864 1.161,1.209 1.036,1.604 0.806,1.91 0.374,1.989 -0.063,2.07 -0.411,1.896 -0.694,1.566 -1.052,1.147 -1.18,0.638 -1.28,0.115 -1.303,-0.006 -1.233,0 -1.152,0 -0.768,0.001 -0.384,0 0,0 M 3.595,-3.185 C 3.011,-4.284 2.388,-5.296 1.144,-5.686 0.199,-5.982 -0.765,-6 -1.728,-5.778 c -0.705,0.162 -1.233,0.582 -1.608,1.195 -0.472,0.769 -0.699,1.612 -0.744,2.507 -0.062,1.262 0.09,2.491 0.604,3.655 0.386,0.876 0.936,1.628 1.776,2.126 0.966,0.572 2.008,0.6 3.074,0.39 C 2.267,3.92 2.908,3.402 3.339,2.61 3.557,2.208 3.7,1.78 3.787,1.333 3.961,0.447 3.95,-0.445 3.874,-1.339 3.862,-1.481 3.922,-1.681 3.814,-1.751 3.707,-1.822 3.522,-1.777 3.372,-1.777 1.833,-1.778 0.295,-1.78 -1.243,-1.774 c -0.164,0.001 -0.22,-0.035 -0.208,-0.206 0.026,-0.346 0.046,-0.692 0.185,-1.017 0.342,-0.799 1.225,-0.978 1.855,-0.376 0.11,0.105 0.215,0.217 0.291,0.347 0.077,0.131 0.169,0.174 0.322,0.153 0.786,-0.107 1.572,-0.206 2.393,-0.312" /></g><g
           transform="translate(77.015,5.936)"
           id="g68"><path
             id="path70"
             style="fill:#f09620;fill-opacity:1;fill-rule:nonzero;stroke:none"
             d="M 0,0 C 0.39,0 0.78,0.001 1.17,0 1.251,0 1.316,-0.005 1.314,0.113 1.307,0.536 1.281,0.956 1.122,1.354 0.938,1.812 0.573,2.042 0.085,2.002 -0.257,1.975 -0.509,1.783 -0.718,1.524 -1.04,1.124 -1.164,0.646 -1.26,0.155 -1.285,0.03 -1.263,-0.005 -1.133,-0.002 -0.755,0.005 -0.378,0 0,0 M 3.598,-3.182 C 3.284,-3.832 2.92,-4.409 2.434,-4.904 1.941,-5.407 1.334,-5.697 0.648,-5.817 c -0.725,-0.128 -1.452,-0.138 -2.179,-0.004 -0.881,0.162 -1.5,0.673 -1.917,1.45 -0.544,1.015 -0.689,2.108 -0.624,3.239 0.053,0.924 0.217,1.825 0.59,2.678 0.31,0.708 0.735,1.335 1.331,1.834 0.885,0.742 1.925,0.912 3.035,0.8 C 1.455,4.123 2,3.979 2.472,3.634 3.123,3.159 3.486,2.495 3.702,1.737 3.969,0.802 3.959,-0.155 3.908,-1.114 3.899,-1.283 3.873,-1.452 3.869,-1.622 3.866,-1.754 3.811,-1.781 3.686,-1.781 2.047,-1.776 0.408,-1.78 -1.231,-1.774 -1.4,-1.773 -1.46,-1.808 -1.441,-1.988 c 0.031,-0.301 0.046,-0.602 0.144,-0.891 0.316,-0.934 1.327,-1.142 1.984,-0.406 0.072,0.079 0.15,0.159 0.199,0.251 0.08,0.151 0.185,0.184 0.351,0.161 0.779,-0.109 1.559,-0.205 2.361,-0.309" /></g><g
           transform="translate(59.234,4.5087)"
           id="g72"><path
             id="path74"
             style="fill:#f09620;fill-opacity:1;fill-rule:nonzero;stroke:none"
             d="m 0,0 c 0,-0.132 -0.009,-0.265 0.002,-0.396 0.03,-0.386 0.095,-0.763 0.311,-1.096 0.357,-0.55 0.976,-0.644 1.476,-0.219 0.267,0.226 0.44,0.517 0.553,0.843 0.24,0.699 0.312,1.423 0.304,2.157 C 2.64,1.753 2.582,2.207 2.323,2.609 1.982,3.139 1.356,3.229 0.875,2.818 0.631,2.609 0.458,2.349 0.337,2.053 0.069,1.395 0.013,0.7 0,0 m 1.694,5.632 c 1.716,0 2.888,-0.832 3.349,-2.5 0.564,-2.041 0.311,-4.009 -0.84,-5.815 -0.625,-0.98 -1.514,-1.606 -2.692,-1.76 -1.822,-0.239 -3.166,0.48 -3.855,2.316 -0.311,0.828 -0.368,1.692 -0.306,2.566 0.075,1.047 0.306,2.054 0.833,2.974 0.514,0.897 1.188,1.623 2.184,1.996 0.201,0.075 0.408,0.131 0.618,0.169 0.248,0.044 0.499,0.065 0.709,0.054" /></g><g
           transform="translate(25.1508,24.6957)"
           id="g76"><path
             id="path78"
             style="fill:#c72026;fill-opacity:1;fill-rule:nonzero;stroke:none"
             d="M 0,0 C 0.441,0.022 0.882,0.002 1.316,-0.084 2.171,-0.256 2.709,-0.792 3.025,-1.581 3.135,-1.856 3.21,-2.142 3.282,-2.429 3.307,-2.529 3.291,-2.572 3.177,-2.586 2.378,-2.688 1.579,-2.795 0.781,-2.907 0.649,-2.925 0.671,-2.83 0.659,-2.769 0.582,-2.378 0.374,-2.104 -0.018,-1.988 -0.47,-1.854 -0.941,-1.987 -1.159,-2.311 -1.446,-2.739 -1.305,-3.186 -0.823,-3.356 -0.352,-3.523 0.148,-3.563 0.634,-3.665 0.936,-3.728 1.233,-3.807 1.525,-3.908 2.465,-4.236 3.02,-4.906 3.147,-5.88 3.33,-7.268 2.915,-8.457 1.811,-9.359 1.304,-9.773 0.7,-9.97 0.059,-10.047 c -0.793,-0.095 -1.582,-0.075 -2.368,0.088 -1.056,0.219 -1.674,0.884 -1.965,1.893 -0.068,0.237 -0.099,0.481 -0.143,0.722 -0.024,0.135 0.019,0.173 0.145,0.188 0.738,0.088 1.474,0.185 2.212,0.273 0.362,0.042 0.363,0.035 0.466,-0.315 0.265,-0.908 1.334,-1.176 1.984,-0.498 0.441,0.46 0.3,1.083 -0.296,1.296 -0.545,0.196 -1.119,0.292 -1.672,0.462 -0.193,0.059 -0.382,0.126 -0.575,0.183 -0.899,0.267 -1.403,0.9 -1.562,1.789 -0.217,1.213 0.05,2.306 0.979,3.173 0.575,0.537 1.294,0.731 2.057,0.791 C -0.454,0.015 -0.227,0 0,0" /></g><g
           transform="translate(17.1295,4.1908)"
           id="g80"><path
             id="path82"
             style="fill:#f09620;fill-opacity:1;fill-rule:nonzero;stroke:none"
             d="M 0,0 C 0.036,1.137 0.142,2.261 0.603,3.321 0.902,4.007 1.333,4.596 1.887,5.099 2.479,5.635 3.191,5.875 3.968,5.934 4.604,5.983 5.239,5.961 5.858,5.774 6.607,5.548 7.138,5.071 7.495,4.384 7.762,3.87 7.91,3.32 7.999,2.75 8.014,2.65 7.992,2.621 7.895,2.603 7.128,2.462 6.362,2.316 5.596,2.169 5.51,2.153 5.489,2.184 5.479,2.263 5.464,2.375 5.439,2.486 5.407,2.594 5.196,3.328 4.46,3.63 3.786,3.262 3.524,3.119 3.315,2.912 3.185,2.651 2.647,1.569 2.503,0.433 2.806,-0.74 c 0.11,-0.424 0.368,-0.768 0.826,-0.879 0.545,-0.131 0.973,0.085 1.311,0.505 0.2,0.248 0.325,0.538 0.426,0.837 0.032,0.092 0.063,0.126 0.173,0.108 C 6.28,-0.293 7.02,-0.408 7.76,-0.521 7.86,-0.536 7.894,-0.567 7.865,-0.665 7.551,-1.72 7.085,-2.685 6.213,-3.403 5.681,-3.84 5.066,-4.079 4.385,-4.145 3.749,-4.206 3.115,-4.177 2.49,-4.032 1.511,-3.806 0.876,-3.176 0.457,-2.294 0.111,-1.567 -0.013,-0.798 0,0" /></g><g
           transform="translate(33.1105,28.1523)"
           id="g84"><path
             id="path86"
             style="fill:#c72026;fill-opacity:1;fill-rule:nonzero;stroke:none"
             d="m 0,0 c -0.049,-0.586 -0.097,-1.173 -0.147,-1.76 -0.05,-0.59 -0.099,-1.18 -0.154,-1.769 -0.01,-0.106 0.031,-0.123 0.122,-0.122 0.41,0.004 0.82,-0.004 1.229,0.005 0.123,0.002 0.149,-0.037 0.138,-0.15 C 1.114,-4.611 1.041,-5.426 0.975,-6.242 0.966,-6.355 0.923,-6.37 0.826,-6.369 c -0.41,0.005 -0.82,10e-4 -1.229,0.002 -0.077,0 -0.139,0.011 -0.148,-0.108 -0.096,-1.224 -0.2,-2.447 -0.299,-3.671 -0.009,-0.112 -0.007,-0.227 0.005,-0.339 0.034,-0.324 0.255,-0.489 0.577,-0.441 0.22,0.032 0.429,0.099 0.632,0.185 0.097,0.041 0.119,0.015 0.118,-0.081 -0.004,-0.775 -0.006,-1.551 -0.006,-2.326 0,-0.07 -0.01,-0.117 -0.091,-0.138 -0.84,-0.227 -1.69,-0.36 -2.558,-0.216 -0.797,0.132 -1.256,0.638 -1.4,1.494 -0.119,0.708 -0.073,1.419 -0.016,2.128 0.089,1.117 0.185,2.234 0.285,3.35 0.012,0.133 -0.016,0.173 -0.153,0.166 -0.232,-0.011 -0.466,0.002 -0.699,-0.005 -0.105,-0.004 -0.142,0.021 -0.131,0.134 0.075,0.821 0.147,1.642 0.214,2.464 0.008,0.1 0.043,0.125 0.137,0.124 0.246,-0.007 0.492,10e-4 0.738,-0.004 0.097,-0.002 0.145,0.017 0.153,0.13 0.033,0.484 0.082,0.967 0.114,1.45 0.009,0.14 0.058,0.224 0.178,0.301 0.882,0.571 1.759,1.15 2.638,1.726 C -0.084,-0.024 -0.061,0.011 0,0" /></g><g
           transform="translate(69.7123,23.0165)"
           id="g88"><path
             id="path90"
             style="fill:#c72026;fill-opacity:1;fill-rule:nonzero;stroke:none"
             d="M 0,0 C 0.171,0.335 0.319,0.631 0.5,0.908 1.167,1.929 2.211,1.885 3.068,1.245 3.124,1.203 3.132,1.17 3.105,1.105 2.768,0.28 2.434,-0.547 2.101,-1.375 2.074,-1.442 2.045,-1.461 1.979,-1.419 1.921,-1.381 1.858,-1.353 1.796,-1.323 1.273,-1.069 0.849,-1.183 0.519,-1.666 0.259,-2.047 0.138,-2.484 0.037,-2.926 c -0.2,-0.874 -0.269,-1.766 -0.343,-2.656 -0.069,-0.822 -0.142,-1.643 -0.207,-2.465 -0.01,-0.117 -0.047,-0.155 -0.169,-0.154 -0.812,0.006 -1.625,0.005 -2.438,0.001 -0.12,0 -0.159,0.018 -0.147,0.155 0.169,1.919 0.33,3.838 0.493,5.757 0.102,1.204 0.207,2.408 0.303,3.612 0.01,0.128 0.044,0.167 0.175,0.165 0.744,-0.007 1.487,-0.007 2.231,0 C 0.077,1.491 0.116,1.462 0.098,1.313 0.054,0.958 0.03,0.599 0.001,0.241 -0.005,0.177 0,0.111 0,0" /></g><g
           transform="translate(36.6554,8.4262)"
           id="g92"><path
             id="path94"
             style="fill:#f09620;fill-opacity:1;fill-rule:nonzero;stroke:none"
             d="M 0,0 C 0.179,0.38 0.343,0.718 0.559,1.028 1.184,1.926 2.16,1.889 2.968,1.264 3.023,1.221 3.029,1.178 3.005,1.117 2.683,0.297 2.36,-0.522 2.042,-1.343 2.011,-1.422 1.98,-1.441 1.906,-1.396 1.831,-1.35 1.751,-1.311 1.671,-1.275 1.24,-1.083 0.874,-1.172 0.582,-1.543 0.388,-1.79 0.272,-2.076 0.182,-2.372 c -0.248,-0.812 -0.342,-1.65 -0.415,-2.491 -0.091,-1.066 -0.178,-2.134 -0.263,-3.2 -0.008,-0.105 -0.054,-0.124 -0.143,-0.124 -0.794,10e-4 -1.588,0.003 -2.383,-0.002 -0.134,0 -0.136,0.065 -0.128,0.165 0.059,0.721 0.115,1.443 0.175,2.165 0.08,0.985 0.163,1.97 0.245,2.956 0.097,1.173 0.194,2.347 0.291,3.52 0.019,0.238 0.042,0.477 0.052,0.716 0.004,0.125 0.042,0.175 0.177,0.174 0.718,-0.006 1.437,-0.007 2.156,0 C 0.085,1.508 0.115,1.464 0.101,1.334 0.061,0.965 0.032,0.594 0.001,0.224 -0.004,0.165 0,0.105 0,0" /></g><g
           transform="translate(83.4621,1.474)"
           id="g96"><path
             id="path98"
             style="fill:#f09620;fill-opacity:1;fill-rule:nonzero;stroke:none"
             d="m 0,0 c 0,-0.433 -0.004,-0.844 0.003,-1.256 0.001,-0.118 -0.035,-0.149 -0.15,-0.149 -0.117,-10e-4 -0.15,0.032 -0.148,0.149 0.005,0.567 0.001,1.133 0.004,1.7 0,0.058 -0.042,0.169 0.072,0.154 C -0.099,0.582 0.068,0.7 0.135,0.5 0.285,0.06 0.432,-0.381 0.58,-0.821 c 0.019,-0.057 0.041,-0.112 0.08,-0.218 0.098,0.288 0.18,0.527 0.261,0.768 0.086,0.255 0.172,0.511 0.256,0.768 0.067,0.207 0.233,0.085 0.352,0.101 0.128,0.017 0.078,-0.103 0.079,-0.165 0.004,-0.56 0,-1.121 0.004,-1.682 10e-4,-0.104 -0.012,-0.157 -0.14,-0.157 -0.127,0 -0.159,0.04 -0.157,0.161 0.006,0.421 0.002,0.842 -0.038,1.27 C 1.186,-0.237 1.095,-0.5 1.005,-0.764 0.948,-0.93 0.891,-1.097 0.842,-1.266 0.813,-1.364 0.77,-1.407 0.659,-1.406 0.551,-1.405 0.505,-1.37 0.473,-1.271 0.354,-0.906 0.228,-0.544 0.103,-0.182 0.084,-0.125 0.081,-0.06 0,0" /></g><g
           transform="translate(84.234,16.4887)"
           id="g100"><path
             id="path102"
             style="fill:#c72026;fill-opacity:1;fill-rule:nonzero;stroke:none"
             d="M 0,0 C 0.002,0.953 -0.776,1.735 -1.724,1.734 -2.665,1.733 -3.44,0.96 -3.447,0.016 -3.454,-0.929 -2.663,-1.725 -1.721,-1.719 -0.776,-1.713 -0.001,-0.94 0,0 m -1.721,-1.784 c -1.003,0 -1.798,0.797 -1.797,1.8 0.002,0.983 0.808,1.789 1.794,1.792 C -0.739,1.812 0.08,0.989 0.075,0 0.071,-0.989 -0.73,-1.784 -1.721,-1.784" /></g><g
           transform="translate(82.2731,0.9662)"
           id="g104"><path
             id="path106"
             style="fill:#f09620;fill-opacity:1;fill-rule:nonzero;stroke:none"
             d="m 0,0 c 0,-0.252 -0.004,-0.504 0.002,-0.755 0.003,-0.105 -0.026,-0.146 -0.136,-0.141 -0.099,0.004 -0.164,0.002 -0.162,0.137 0.008,0.491 -0.002,0.982 0.006,1.473 0.003,0.142 -0.037,0.192 -0.179,0.179 C -0.594,0.881 -0.721,0.894 -0.847,0.889 -0.932,0.886 -0.953,0.924 -0.953,1.001 -0.954,1.08 -0.934,1.114 -0.848,1.113 -0.395,1.11 0.059,1.11 0.512,1.113 0.599,1.114 0.636,1.09 0.634,0.997 0.631,0.912 0.597,0.887 0.519,0.89 0.406,0.893 0.291,0.882 0.179,0.893 0.042,0.906 -0.011,0.866 -0.003,0.718 0.01,0.479 0,0.24 0,0" /></g><g
           transform="translate(82.0995,16.6786)"
           id="g108"><path
             id="path110"
             style="fill:#c72026;fill-opacity:1;fill-rule:nonzero;stroke:none"
             d="M 0,0 H 0.245 C 0.458,0 0.601,0.123 0.612,0.314 0.622,0.483 0.476,0.629 0.27,0.644 0.133,0.654 -0.006,0.649 -0.144,0.649 -0.4,0.649 -0.4,0.649 -0.4,0.394 -0.4,0 -0.4,0 0,0 m 0.966,-1.072 c -0.352,-0.083 -0.379,-0.063 -0.388,0.264 -0.001,0.019 0,0.037 -0.001,0.057 -0.013,0.426 -0.093,0.504 -0.516,0.504 -0.461,0.001 -0.461,0.001 -0.461,-0.451 0,-0.082 -0.001,-0.163 0.001,-0.245 0.001,-0.09 0.015,-0.166 -0.127,-0.166 -0.14,0 -0.147,0.06 -0.147,0.168 0.004,0.56 0.006,1.12 -0.001,1.68 -0.002,0.136 0.04,0.17 0.17,0.166 C -0.234,0.895 0.037,0.9 0.307,0.902 0.551,0.904 0.734,0.805 0.836,0.58 0.939,0.349 0.894,0.126 0.71,-0.057 0.674,-0.094 0.624,-0.112 0.694,-0.167 0.838,-0.281 0.848,-0.448 0.848,-0.613 0.847,-0.776 0.832,-0.939 0.966,-1.072" /></g></g></g></g></svg>