<?xml version="1.0" encoding="UTF-8" standalone="no"?>
<svg
   xmlns:dc="http://purl.org/dc/elements/1.1/"
   xmlns:cc="http://creativecommons.org/ns#"
   xmlns:rdf="http://www.w3.org/1999/02/22-rdf-syntax-ns#"
   xmlns:svg="http://www.w3.org/2000/svg"
   xmlns="http://www.w3.org/2000/svg"
   viewBox="0 0 14.9624 14.983733"
   height="14.983733"
   width="14.9624"
   xml:space="preserve"
   id="svg2"
   version="1.1"><metadata
     id="metadata8"><rdf:RDF><cc:Work
         rdf:about=""><dc:format>image/svg+xml</dc:format><dc:type
           rdf:resource="http://purl.org/dc/dcmitype/StillImage" /></cc:Work></rdf:RDF></metadata><defs
     id="defs6"><clipPath
       id="clipPath18"
       clipPathUnits="userSpaceOnUse"><path
         id="path16"
         d="M 0,11.238 H 11.222 V 0 H 0 Z" /></clipPath></defs><g
     transform="matrix(1.3333333,0,0,-1.3333333,0,14.983733)"
     id="g10"><g
       id="g12"><g
         clip-path="url(#clipPath18)"
         id="g14"><g
           transform="translate(3.6935,7.7012)"
           id="g20"><path
             id="path22"
             style="fill:#6d6f71;fill-opacity:1;fill-rule:nonzero;stroke:none"
             d="M 0,0 C -0.043,-0.044 -0.086,-0.088 -0.133,-0.133 -0.311,-0.315 -0.505,-0.51 -0.715,-0.698 L -0.74,-0.723 c -0.222,-0.231 -0.183,-0.463 -0.134,-0.62 l 0.009,-0.028 c 0.167,-0.403 0.404,-0.79 0.77,-1.254 0.652,-0.803 1.337,-1.426 2.093,-1.904 0.1,-0.063 0.199,-0.113 0.295,-0.161 0.082,-0.04 0.158,-0.079 0.237,-0.127 L 2.552,-4.83 c 0.248,-0.124 0.499,-0.08 0.7,0.122 l 0.797,0.796 c 0.066,0.066 0.169,0.145 0.281,0.145 0.119,0 0.214,-0.086 0.264,-0.14 L 5.883,-5.196 C 6.084,-5.395 6.084,-5.577 5.884,-5.785 L 5.882,-5.786 V -5.787 C 5.807,-5.868 5.73,-5.942 5.649,-6.021 L 5.603,-6.066 C 5.453,-6.209 5.294,-6.365 5.149,-6.536 4.933,-6.767 4.678,-6.875 4.346,-6.875 c -0.033,0.001 -0.068,0 -0.1,0.002 -0.676,0.044 -1.307,0.31 -1.781,0.536 -1.306,0.632 -2.452,1.53 -3.405,2.667 -0.785,0.946 -1.312,1.824 -1.66,2.764 -0.211,0.563 -0.289,0.999 -0.255,1.415 0.021,0.248 0.117,0.454 0.292,0.63 l 0.792,0.792 c 0.097,0.09 0.195,0.138 0.286,0.138 0.112,0 0.208,-0.072 0.279,-0.143 0.141,-0.132 0.275,-0.268 0.415,-0.413 L 0.068,0.649 c 0.209,-0.209 0.209,-0.371 0,-0.58 z m 5.193,-3.331 c -0.49,0.51 -1.217,0.512 -1.726,0.003 L 2.783,-4.01 C 2.765,-4 2.748,-3.991 2.73,-3.982 L 2.667,-3.95 c -0.081,0.04 -0.158,0.078 -0.222,0.118 -0.68,0.433 -1.299,0.997 -1.892,1.726 -0.266,0.335 -0.449,0.618 -0.586,0.906 0.154,0.143 0.298,0.29 0.439,0.433 l 0.246,0.249 c 0.26,0.259 0.396,0.562 0.396,0.877 0,0.314 -0.136,0.618 -0.396,0.877 L 0.016,1.872 c -0.071,0.071 -0.145,0.145 -0.215,0.22 -0.138,0.143 -0.288,0.295 -0.44,0.435 -0.491,0.486 -1.2,0.492 -1.718,-0.006 L -3.149,1.723 C -3.464,1.407 -3.644,1.022 -3.684,0.577 c -0.057,-0.699 0.146,-1.346 0.305,-1.772 0.382,-1.032 0.954,-1.986 1.799,-3.002 1.03,-1.23 2.269,-2.2 3.684,-2.885 0.547,-0.258 1.278,-0.563 2.088,-0.614 0.051,-0.003 0.103,-0.005 0.152,-0.005 0.568,0 1.045,0.205 1.43,0.625 0.11,0.133 0.236,0.255 0.371,0.385 l 0.029,0.028 c 0.101,0.097 0.205,0.198 0.306,0.304 0.248,0.258 0.38,0.561 0.38,0.875 0,0.318 -0.135,0.619 -0.388,0.87 z" /></g><g
           transform="translate(7.5938,7.6074)"
           id="g24"><path
             id="path26"
             style="fill:#6d6f71;fill-opacity:1;fill-rule:nonzero;stroke:none"
             d="m 0,0 c 0.426,-0.426 0.705,-0.963 0.806,-1.553 0.033,-0.2 0.205,-0.344 0.408,-0.344 0.021,0 0.04,0.001 0.07,0.005 0.11,0.018 0.206,0.078 0.27,0.169 0.064,0.09 0.089,0.2 0.071,0.31 C 1.496,-0.654 1.138,0.038 0.589,0.586 0.04,1.135 -0.652,1.494 -1.412,1.623 -1.638,1.661 -1.849,1.512 -1.889,1.286 -1.909,1.175 -1.884,1.063 -1.819,0.972 -1.755,0.883 -1.661,0.824 -1.552,0.806 -0.965,0.708 -0.428,0.429 0,0" /></g><g
           transform="translate(9.5269,9.5425)"
           id="g28"><path
             id="path30"
             style="fill:#6d6f71;fill-opacity:1;fill-rule:nonzero;stroke:none"
             d="m 0,0 c -0.894,0.894 -2.021,1.478 -3.257,1.689 -0.222,0.04 -0.436,-0.112 -0.477,-0.339 -0.037,-0.228 0.112,-0.438 0.34,-0.478 1.064,-0.18 2.035,-0.684 2.81,-1.456 0.771,-0.771 1.275,-1.743 1.456,-2.809 0.033,-0.199 0.205,-0.344 0.408,-0.344 0.022,0 0.041,0.002 0.069,0.006 0.109,0.016 0.204,0.075 0.269,0.165 0.065,0.09 0.09,0.2 0.07,0.309 C 1.478,-2.021 0.894,-0.894 0,0" /></g></g></g></g></svg>