<?xml version="1.0" encoding="UTF-8" standalone="no"?>
<svg
   xmlns:dc="http://purl.org/dc/elements/1.1/"
   xmlns:cc="http://creativecommons.org/ns#"
   xmlns:rdf="http://www.w3.org/1999/02/22-rdf-syntax-ns#"
   xmlns:svg="http://www.w3.org/2000/svg"
   xmlns="http://www.w3.org/2000/svg"
   viewBox="0 0 14.304267 28.608667"
   height="28.608667"
   width="14.304267"
   xml:space="preserve"
   id="svg2"
   version="1.1"><metadata
     id="metadata8"><rdf:RDF><cc:Work
         rdf:about=""><dc:format>image/svg+xml</dc:format><dc:type
           rdf:resource="http://purl.org/dc/dcmitype/StillImage" /></cc:Work></rdf:RDF></metadata><defs
     id="defs6"><clipPath
       id="clipPath18"
       clipPathUnits="userSpaceOnUse"><path
         id="path16"
         d="M 0,21.456 H 10.728 V 0 H 0 Z" /></clipPath></defs><g
     transform="matrix(1.3333333,0,0,-1.3333333,0,28.608667)"
     id="g10"><g
       id="g12"><g
         clip-path="url(#clipPath18)"
         id="g14"><g
           transform="translate(0.9764,1.9528)"
           id="g20"><path
             id="path22"
             style="fill:#6d6f71;fill-opacity:1;fill-rule:evenodd;stroke:none"
             d="M 0,0 V 1.953 H 8.775 V 0 C 8.775,-0.472 8.628,-0.69 8.338,-0.834 8.133,-0.939 7.909,-0.976 7.799,-0.976 H 0.976 c -0.109,0 -0.334,0.037 -0.543,0.142 C 0.147,-0.69 0,-0.472 0,0 M 0,16.089 H 8.775 V 2.923 H 0 Z m 0,1.462 c 0,0.472 0.147,0.691 0.433,0.839 0.209,0.1 0.434,0.137 0.543,0.137 h 6.823 c 0.11,0 0.334,-0.037 0.539,-0.137 0.29,-0.148 0.437,-0.367 0.437,-0.839 V 17.066 H 0 Z M 7.799,-1.953 c 0,0 1.953,0 1.953,1.953 v 17.551 c 0,1.953 -1.953,1.953 -1.953,1.953 H 0.976 c 0,0 -1.952,0 -1.952,-1.953 V 0 c 0,-1.953 1.952,-1.953 1.952,-1.953 z" /></g><g
           transform="translate(6.6947,19.9949)"
           id="g24"><path
             id="path26"
             style="fill:#6d6f71;fill-opacity:1;fill-rule:evenodd;stroke:none"
             d="m 0,0 h -2.666 c -0.072,0 -0.129,-0.095 -0.129,-0.215 v -0.062 c 0,-0.118 0.057,-0.214 0.129,-0.214 H 0 c 0.077,0 0.134,0.096 0.134,0.214 v 0.062 C 0.134,-0.095 0.072,0 0,0" /></g><g
           transform="translate(6.3375,2.438)"
           id="g28"><path
             id="path30"
             style="fill:#6d6f71;fill-opacity:1;fill-rule:evenodd;stroke:none"
             d="m 0,0 c 0,-0.538 -0.433,-0.97 -0.977,-0.97 -0.537,0 -0.97,0.432 -0.97,0.97 0,0.544 0.433,0.976 0.97,0.976 C -0.433,0.976 0,0.544 0,0" /></g></g></g></g></svg>