<?xml version="1.0" encoding="UTF-8" standalone="no"?>
<svg
   xmlns:dc="http://purl.org/dc/elements/1.1/"
   xmlns:cc="http://creativecommons.org/ns#"
   xmlns:rdf="http://www.w3.org/1999/02/22-rdf-syntax-ns#"
   xmlns:svg="http://www.w3.org/2000/svg"
   xmlns="http://www.w3.org/2000/svg"
   viewBox="0 0 81.414803 51.735466"
   height="51.735466"
   width="81.414803"
   xml:space="preserve"
   id="svg2"
   version="1.1"><metadata
     id="metadata8"><rdf:RDF><cc:Work
         rdf:about=""><dc:format>image/svg+xml</dc:format><dc:type
           rdf:resource="http://purl.org/dc/dcmitype/StillImage" /></cc:Work></rdf:RDF></metadata><defs
     id="defs6"><clipPath
       id="clipPath18"
       clipPathUnits="userSpaceOnUse"><path
         id="path16"
         d="M 0,38.802 H 61.061 V 0 H 0 Z" /></clipPath></defs><g
     transform="matrix(1.3333333,0,0,-1.3333333,0,51.735467)"
     id="g10"><g
       id="g12"><g
         clip-path="url(#clipPath18)"
         id="g14"><g
           transform="translate(30.535,38.0614)"
           id="g20"><path
             id="path22"
             style="fill:#005296;fill-opacity:1;fill-rule:nonzero;stroke:none"
             d="m 0,0 h -28.516 c -0.789,0 -1.283,-0.494 -1.283,-1.284 -0.001,-11.586 -0.001,-23.172 0,-34.758 0,-0.8 0.496,-1.299 1.294,-1.299 18.996,-10e-4 37.993,-10e-4 56.99,-10e-4 0.808,0 1.31,0.502 1.31,1.31 0,11.573 -0.002,23.145 0.005,34.718 10e-4,0.805 -0.591,1.322 -1.326,1.322 C 18.983,-0.004 9.491,0 0,0 m -0.015,-38.062 h -28.453 c -1.117,0 -1.875,0.61 -2.047,1.651 -0.017,0.1 -0.019,0.204 -0.019,0.307 -0.001,11.621 -0.001,23.241 -0.001,34.861 0,1.14 0.835,1.978 1.971,1.978 19.038,0.001 38.075,-0.001 57.113,0.005 0.956,0.001 1.982,-0.718 1.977,-2.042 -0.015,-4.286 -0.006,-8.572 -0.006,-12.857 0,-7.286 0,-14.573 0,-21.86 0,-1.026 -0.541,-1.76 -1.467,-1.997 -0.202,-0.051 -0.409,-0.044 -0.615,-0.044 -9.484,-0.002 -18.968,-10e-4 -28.453,-0.002" /></g><g
           transform="translate(51.1371,23.9852)"
           id="g24"><path
             id="path26"
             style="fill:#005296;fill-opacity:1;fill-rule:nonzero;stroke:none"
             d="M 0,0 C -0.784,-2.135 -1.552,-4.229 -2.323,-6.321 -2.367,-6.44 -2.333,-6.46 -2.221,-6.46 -1.088,-6.458 0.045,-6.457 1.178,-6.461 1.323,-6.462 1.326,-6.418 1.3,-6.293 0.945,-4.597 0.597,-2.899 0.248,-1.202 0.168,-0.814 0.088,-0.426 0,0 m 4.697,-12.634 c -0.632,0 -1.264,0.007 -1.895,-0.004 -0.154,-0.003 -0.208,0.046 -0.237,0.19 -0.148,0.739 -0.311,1.475 -0.452,2.215 -0.032,0.168 -0.101,0.205 -0.255,0.204 -1.792,-0.004 -3.585,-0.005 -5.377,0.002 -0.15,10e-4 -0.183,-0.077 -0.221,-0.184 -0.27,-0.754 -0.546,-1.506 -0.809,-2.263 -0.045,-0.128 -0.103,-0.163 -0.233,-0.163 -1.456,0.005 -2.912,0.006 -4.368,0 -0.165,-10e-4 -0.178,0.039 -0.118,0.18 1.533,3.654 3.062,7.309 4.592,10.963 0.655,1.565 1.323,3.126 1.96,4.699 0.412,1.017 1.14,1.518 2.231,1.518 1.153,0.001 2.307,0.007 3.461,0.017 0.13,10e-4 0.185,-0.029 0.214,-0.172 0.485,-2.341 0.978,-4.68 1.468,-7.02 0.657,-3.138 1.314,-6.276 1.971,-9.413 0.044,-0.208 0.081,-0.418 0.13,-0.624 0.029,-0.119 -0.004,-0.149 -0.125,-0.148 -0.646,0.006 -1.291,0.003 -1.937,0.003" /></g><g
           transform="translate(33.9696,11.1044)"
           id="g28"><path
             id="path30"
             style="fill:#005296;fill-opacity:1;fill-rule:nonzero;stroke:none"
             d="m 0,0 c -1.278,0.033 -2.881,0.238 -4.422,0.816 -0.186,0.07 -0.228,0.155 -0.196,0.345 0.196,1.155 0.383,2.312 0.562,3.47 0.026,0.171 0.066,0.182 0.213,0.11 C -2.882,4.267 -1.891,3.866 -0.818,3.733 0.163,3.611 1.149,3.525 2.117,3.836 2.433,3.938 2.726,4.085 2.977,4.305 3.569,4.821 3.728,5.763 2.841,6.464 2.425,6.793 1.968,7.056 1.494,7.29 0.602,7.73 -0.281,8.184 -1.052,8.824 c -0.841,0.697 -1.498,1.524 -1.674,2.631 -0.23,1.442 0.138,2.749 1.05,3.888 0.922,1.152 2.156,1.83 3.557,2.205 2.276,0.61 4.533,0.503 6.758,-0.276 C 8.752,17.233 8.827,17.197 8.802,17.048 8.608,15.893 8.417,14.736 8.236,13.579 8.212,13.423 8.169,13.442 8.06,13.495 6.729,14.15 5.323,14.4 3.849,14.257 3.281,14.202 2.744,14.045 2.304,13.656 1.782,13.195 1.743,12.58 2.196,12.056 2.313,11.92 2.449,11.806 2.593,11.7 3.176,11.272 3.822,10.953 4.464,10.631 5.419,10.152 6.328,9.609 7.059,8.812 7.987,7.796 8.305,6.596 8.123,5.253 7.807,2.921 6.39,1.496 4.284,0.661 3.113,0.196 1.859,0 0,0" /></g><g
           transform="translate(13.3842,19.37)"
           id="g32"><path
             id="path34"
             style="fill:#005296;fill-opacity:1;fill-rule:nonzero;stroke:none"
             d="M 0,0 C 0.171,-0.692 0.279,-1.396 0.422,-2.094 0.442,-2.191 0.465,-2.287 0.527,-2.387 0.671,-2 0.815,-1.612 0.959,-1.225 2.243,2.239 3.529,5.703 4.809,9.169 4.86,9.307 4.92,9.357 5.07,9.356 6.526,9.351 7.982,9.35 9.438,9.356 9.629,9.357 9.634,9.305 9.571,9.149 7.47,4.006 5.372,-1.14 3.274,-6.285 3.065,-6.798 2.854,-7.31 2.653,-7.827 2.604,-7.952 2.545,-8.004 2.402,-8.003 c -1.47,0.006 -2.94,0.005 -4.41,10e-4 -0.138,-10e-4 -0.181,0.047 -0.215,0.176 C -3.519,-2.914 -4.819,1.997 -6.118,6.908 -6.132,6.96 -6.14,7.015 -6.151,7.069 -6.12,7.054 -6.088,7.043 -6.059,7.026 -3.9,5.733 -2.146,4.038 -0.884,1.848 -0.559,1.284 -0.302,0.688 -0.032,0.098 L -0.033,0.102 C -0.035,0.063 -0.031,0.027 0,0" /></g><g
           transform="translate(27.0746,28.7357)"
           id="g36"><path
             id="path38"
             style="fill:#005296;fill-opacity:1;fill-rule:nonzero;stroke:none"
             d="M 0,0 C 0.68,0 1.36,-0.008 2.039,0.005 2.224,0.009 2.254,-0.044 2.227,-0.209 2.067,-1.169 1.914,-2.13 1.758,-3.091 1.516,-4.586 1.273,-6.081 1.031,-7.576 0.747,-9.328 0.462,-11.08 0.178,-12.832 c -0.237,-1.461 -0.475,-2.922 -0.705,-4.384 -0.021,-0.137 -0.07,-0.164 -0.195,-0.164 -1.38,0.004 -2.76,0.005 -4.141,-0.001 -0.152,-0.001 -0.185,0.047 -0.161,0.187 0.227,1.386 0.452,2.774 0.676,4.16 0.254,1.57 0.508,3.139 0.761,4.709 0.24,1.489 0.478,2.977 0.719,4.466 0.199,1.231 0.402,2.462 0.595,3.693 0.021,0.133 0.064,0.169 0.192,0.168 C -1.387,-0.003 -0.694,0 0,0" /></g><g
           transform="translate(13.3524,19.4677)"
           id="g40"><path
             id="path42"
             style="fill:#f4a81c;fill-opacity:1;fill-rule:nonzero;stroke:none"
             d="m 0,0 c -0.27,0.59 -0.528,1.187 -0.853,1.75 -1.261,2.19 -3.016,3.885 -5.174,5.178 -0.029,0.017 -0.062,0.029 -0.093,0.043 -0.835,0.52 -1.728,0.918 -2.643,1.271 -0.627,0.242 -1.269,0.44 -1.917,0.614 -0.088,0.023 -0.189,0.028 -0.145,0.163 0.036,0.108 -0.014,0.253 0.205,0.252 C -8.258,9.262 -5.896,9.269 -3.534,9.263 -3.141,9.262 -2.755,9.189 -2.4,9.007 -1.78,8.69 -1.566,8.123 -1.442,7.486 -0.972,5.064 -0.492,2.644 -0.015,0.223 0,0.15 0.02,0.076 0,0" /></g><g
           transform="translate(13.3842,19.37)"
           id="g44"><path
             id="path46"
             style="fill:#f4a81c;fill-opacity:1;fill-rule:nonzero;stroke:none"
             d="M 0,0 C -0.031,0.027 -0.035,0.063 -0.033,0.102 0.014,0.08 0.003,0.039 0,0" /></g></g></g></g></svg>