<?xml version="1.0" encoding="UTF-8" standalone="no"?>
<svg
   xmlns:dc="http://purl.org/dc/elements/1.1/"
   xmlns:cc="http://creativecommons.org/ns#"
   xmlns:rdf="http://www.w3.org/1999/02/22-rdf-syntax-ns#"
   xmlns:svg="http://www.w3.org/2000/svg"
   xmlns="http://www.w3.org/2000/svg"
   viewBox="0 0 81.282402 35.055065"
   height="35.055065"
   width="81.282402"
   xml:space="preserve"
   id="svg2"
   version="1.1"><metadata
     id="metadata8"><rdf:RDF><cc:Work
         rdf:about=""><dc:format>image/svg+xml</dc:format><dc:type
           rdf:resource="http://purl.org/dc/dcmitype/StillImage" /></cc:Work></rdf:RDF></metadata><defs
     id="defs6"><clipPath
       id="clipPath18"
       clipPathUnits="userSpaceOnUse"><path
         id="path16"
         d="M 0,26.291 H 60.962 V 0 H 0 Z" /></clipPath></defs><g
     transform="matrix(1.3333333,0,0,-1.3333333,0,35.055067)"
     id="g10"><g
       id="g12"><g
         clip-path="url(#clipPath18)"
         id="g14"><g
           transform="translate(47.5295,8.9087)"
           id="g20"><path
             id="path22"
             style="fill:#005296;fill-opacity:1;fill-rule:nonzero;stroke:none"
             d="m 0,0 c -0.042,-0.009 -0.048,-0.036 -0.057,-0.062 -0.509,-1.393 -1.016,-2.787 -1.531,-4.177 -0.059,-0.161 -0.033,-0.195 0.135,-0.193 0.707,0.008 1.413,0.004 2.12,0.004 0.255,0 0.252,-0.001 0.202,0.243 C 0.579,-2.792 0.29,-1.398 0,0 m -6.502,-8.715 c 0.179,0.427 0.354,0.849 0.531,1.27 1.363,3.257 2.731,6.511 4.085,9.772 0.305,0.734 0.854,1.033 1.61,1.035 C 0.493,3.364 1.262,3.359 2.031,3.366 2.165,3.367 2.2,3.315 2.225,3.194 c 0.334,-1.61 0.674,-3.218 1.011,-4.827 0.379,-1.81 0.756,-3.62 1.135,-5.43 0.115,-0.55 0.23,-1.1 0.349,-1.671 H 4.038 c -0.687,0 -1.373,0.005 -2.06,-0.004 -0.141,-0.002 -0.185,0.045 -0.21,0.174 -0.096,0.497 -0.207,0.992 -0.302,1.49 -0.025,0.13 -0.086,0.157 -0.207,0.156 -1.216,-0.004 -2.432,-0.005 -3.647,0.001 -0.13,0 -0.19,-0.035 -0.233,-0.161 -0.176,-0.511 -0.367,-1.016 -0.546,-1.526 -0.031,-0.089 -0.065,-0.133 -0.168,-0.132 -1.031,0.004 -2.061,0.003 -3.091,0.003 -0.018,0 -0.037,0.008 -0.076,0.018" /></g><g
           transform="translate(41.2842,9.3472)"
           id="g24"><path
             id="path26"
             style="fill:#005296;fill-opacity:1;fill-rule:nonzero;stroke:none"
             d="M 0,0 C -0.889,0.459 -1.806,0.639 -2.77,0.602 -3.152,0.587 -3.52,0.523 -3.859,0.341 c -0.662,-0.356 -0.726,-0.985 -0.147,-1.458 0.133,-0.109 0.276,-0.206 0.422,-0.295 0.38,-0.232 0.779,-0.429 1.177,-0.63 0.497,-0.252 0.966,-0.548 1.377,-0.928 1.048,-0.968 1.218,-2.152 0.805,-3.449 -0.395,-1.243 -1.311,-1.994 -2.486,-2.457 -1.1,-0.434 -2.25,-0.526 -3.418,-0.444 -0.892,0.063 -1.767,0.216 -2.612,0.521 -0.18,0.064 -0.213,0.149 -0.18,0.332 0.138,0.776 0.262,1.554 0.38,2.333 0.023,0.153 0.069,0.138 0.177,0.085 0.71,-0.349 1.443,-0.633 2.239,-0.712 0.642,-0.064 1.286,-0.116 1.914,0.104 0.196,0.069 0.379,0.158 0.539,0.292 0.467,0.39 0.495,0.975 0.063,1.402 -0.266,0.264 -0.589,0.447 -0.919,0.616 -0.621,0.319 -1.254,0.617 -1.807,1.054 -0.589,0.466 -1.081,1.01 -1.241,1.764 -0.271,1.283 0.131,2.374 1.061,3.266 0.811,0.778 1.825,1.15 2.915,1.316 1.318,0.2 2.612,0.087 3.873,-0.357 C 0.356,2.667 0.436,2.649 0.414,2.521 0.274,1.689 0.14,0.858 0,0" /></g><g
           transform="translate(21.2205,5.8042)"
           id="g28"><path
             id="path30"
             style="fill:#005296;fill-opacity:1;fill-rule:nonzero;stroke:none"
             d="m 0,0 c 0.162,-0.545 0.221,-1.112 0.358,-1.68 0.072,0.033 0.073,0.101 0.091,0.15 0.965,2.597 1.928,5.196 2.886,7.796 0.056,0.151 0.121,0.208 0.29,0.206 C 4.594,6.462 5.562,6.462 6.53,6.471 6.722,6.473 6.722,6.421 6.659,6.268 5.068,2.373 3.48,-1.524 1.897,-5.423 1.839,-5.565 1.77,-5.615 1.614,-5.614 0.633,-5.61 -0.349,-5.613 -1.331,-5.628 -1.515,-5.631 -1.525,-5.525 -1.556,-5.407 -2.398,-2.216 -3.241,0.975 -4.081,4.166 -4.143,4.402 -4.238,4.632 -4.245,4.881 -4.208,4.867 -4.167,4.857 -4.134,4.837 -3.129,4.226 -2.248,3.471 -1.501,2.561 -0.865,1.787 -0.382,0.923 0,0" /></g><g
           transform="translate(3.7632,17.8467)"
           id="g32"><path
             id="path34"
             style="fill:#005296;fill-opacity:1;fill-rule:nonzero;stroke:none"
             d="M 0,0 C 0.46,0.919 0.901,1.801 1.342,2.682 2.198,4.39 3.054,6.098 3.906,7.808 3.962,7.92 4.023,7.966 4.153,7.964 4.797,7.956 5.44,7.96 6.115,7.96 5.886,7.524 5.671,7.113 5.455,6.703 3.845,3.651 2.233,0.601 0.628,-2.455 0.543,-2.617 0.453,-2.675 0.269,-2.67 c -0.528,0.014 -1.057,0.011 -1.586,10e-4 -0.141,-0.003 -0.187,0.05 -0.215,0.175 -0.385,1.753 -0.774,3.505 -1.162,5.257 -0.351,1.585 -0.7,3.17 -1.056,4.753 -0.032,0.146 -0.012,0.198 0.146,0.222 0.624,0.093 1.246,0.199 1.866,0.309 0.137,0.025 0.174,-0.015 0.199,-0.143 C -1.046,5.334 -0.548,2.765 -0.05,0.196 -0.04,0.142 -0.023,0.089 0,0" /></g><g
           transform="translate(41.3091,18.2081)"
           id="g36"><path
             id="path38"
             style="fill:#005296;fill-opacity:1;fill-rule:nonzero;stroke:none"
             d="m 0,0 c 0.006,-0.088 0.009,-0.225 0.024,-0.361 0.096,-0.858 0.707,-1.282 1.542,-1.063 0.566,0.148 0.988,0.516 1.382,0.924 0.044,0.045 0.04,0.1 0.048,0.153 0.134,0.859 0.273,1.718 0.4,2.578 C 3.477,2.774 3.469,2.775 2.928,2.927 1.75,3.255 0.824,2.824 0.36,1.727 0.133,1.191 0.022,0.629 0,0 M 2.857,-1.966 C 2.33,-2.49 1.774,-2.898 1.074,-3.049 c -0.807,-0.174 -1.576,-0.103 -2.217,0.482 -0.465,0.424 -0.67,0.99 -0.715,1.596 -0.105,1.442 0.154,2.81 1.024,3.996 C 0.003,4.167 1.16,4.627 2.564,4.484 2.906,4.45 3.243,4.392 3.568,4.28 3.672,4.245 3.713,4.26 3.731,4.376 3.892,5.453 4.062,6.529 4.22,7.607 4.241,7.755 4.295,7.814 4.441,7.835 4.97,7.909 5.498,7.992 6.026,8.079 6.143,8.098 6.144,8.059 6.129,7.962 5.967,6.919 5.809,5.876 5.649,4.833 5.394,3.174 5.138,1.514 4.883,-0.145 4.744,-1.045 4.605,-1.946 4.469,-2.847 4.455,-2.941 4.417,-2.974 4.323,-2.974 3.877,-2.971 3.431,-2.969 2.985,-2.975 2.863,-2.977 2.855,-2.916 2.856,-2.822 2.86,-2.55 2.857,-2.277 2.857,-1.966" /></g><g
           transform="translate(30.7808,12.2842)"
           id="g40"><path
             id="path42"
             style="fill:#005296;fill-opacity:1;fill-rule:nonzero;stroke:none"
             d="M 0,0 C 0.467,0 0.934,-0.004 1.4,0.002 1.529,0.004 1.558,-0.021 1.536,-0.158 1.3,-1.584 1.073,-3.012 0.843,-4.439 0.604,-5.919 0.364,-7.4 0.125,-8.881 c -0.167,-1.035 -0.334,-2.07 -0.497,-3.105 -0.015,-0.095 -0.049,-0.125 -0.143,-0.125 -0.961,0.003 -1.922,0.006 -2.883,-0.002 -0.19,-0.001 -0.111,0.118 -0.1,0.19 0.125,0.798 0.257,1.596 0.386,2.394 0.31,1.92 0.619,3.841 0.928,5.761 0.194,1.205 0.389,2.408 0.579,3.612 0.021,0.129 0.081,0.161 0.205,0.159 C -0.933,-0.004 -0.467,0 0,0" /></g><g
           transform="translate(35.6563,19.7276)"
           id="g44"><path
             id="path46"
             style="fill:#005296;fill-opacity:1;fill-rule:nonzero;stroke:none"
             d="M 0,0 C 0.439,0 0.877,0.002 1.316,-0.001 1.423,-0.003 1.474,0.015 1.474,0.142 1.472,0.417 1.46,0.69 1.383,0.955 1.249,1.418 0.961,1.712 0.465,1.772 0.012,1.827 -0.371,1.68 -0.7,1.377 -1.064,1.043 -1.264,0.612 -1.419,0.153 -1.468,0.009 -1.418,-0.003 -1.295,-0.002 -0.864,0.003 -0.432,0 0,0 m 2.672,-2.333 c 0,-0.448 -0.001,-0.898 10e-4,-1.349 0,-0.056 -0.027,-0.086 -0.072,-0.112 -1.36,-0.797 -2.803,-1.105 -4.34,-0.651 -0.996,0.294 -1.579,1.019 -1.717,2.032 -0.212,1.564 0.119,3.015 1.186,4.217 0.956,1.075 2.186,1.462 3.594,1.173 C 2.365,2.764 2.941,2.059 3.154,1.042 3.299,0.354 3.241,-0.335 3.109,-1.021 3.08,-1.174 2.987,-1.155 2.885,-1.155 1.443,-1.154 0.001,-1.158 -1.44,-1.15 c -0.187,10e-4 -0.258,-0.045 -0.244,-0.237 0.013,-0.191 0,-0.385 0.037,-0.574 0.157,-0.815 0.687,-1.233 1.584,-1.25 0.834,-0.017 1.587,0.254 2.302,0.656 0.136,0.077 0.274,0.153 0.411,0.229 0.004,0.002 0.012,-0.004 0.022,-0.007" /></g><g
           transform="translate(11.5422,19.7276)"
           id="g48"><path
             id="path50"
             style="fill:#005296;fill-opacity:1;fill-rule:nonzero;stroke:none"
             d="M 0,0 C 0.439,0 0.877,0.004 1.316,-0.002 1.438,-0.004 1.484,0.023 1.48,0.155 1.475,0.368 1.469,0.58 1.433,0.79 1.319,1.448 0.848,1.836 0.215,1.785 -0.138,1.756 -0.444,1.614 -0.702,1.37 -1.052,1.041 -1.25,0.625 -1.402,0.18 -1.446,0.05 -1.445,-0.009 -1.275,-0.004 -0.85,0.008 -0.425,0 0,0 m 2.694,-2.321 c 0,-0.456 -10e-4,-0.894 10e-4,-1.332 0,-0.072 -0.033,-0.112 -0.091,-0.146 -1.264,-0.749 -2.619,-1.05 -4.065,-0.725 -1.238,0.278 -1.936,1.112 -2.033,2.441 -0.096,1.316 0.189,2.56 1.011,3.622 0.946,1.223 2.205,1.727 3.736,1.451 C 2.302,2.801 2.977,2.074 3.168,1.021 3.292,0.342 3.245,-0.33 3.122,-1.002 3.094,-1.155 3.009,-1.156 2.89,-1.156 c -1.441,0.003 -2.883,-0.003 -4.324,0.007 -0.192,0.001 -0.245,-0.058 -0.243,-0.239 0.004,-0.488 0.047,-0.964 0.397,-1.346 0.399,-0.436 0.925,-0.496 1.474,-0.473 0.824,0.036 1.554,0.353 2.251,0.765 0.059,0.035 0.117,0.072 0.176,0.106 0.011,0.006 0.026,0.006 0.073,0.015" /></g><g
           transform="translate(27.9087,21.1285)"
           id="g52"><path
             id="path54"
             style="fill:#005296;fill-opacity:1;fill-rule:nonzero;stroke:none"
             d="m 0,0 c -0.213,0 -0.426,-0.006 -0.638,0.003 -0.119,0.005 -0.174,-0.03 -0.192,-0.151 -0.192,-1.275 -0.389,-2.548 -0.584,-3.822 -0.089,-0.583 -0.184,-1.165 -0.264,-1.748 -0.021,-0.153 -0.087,-0.18 -0.225,-0.178 -0.474,0.008 -0.948,0.016 -1.421,-0.003 -0.209,-0.008 -0.217,0.07 -0.191,0.235 0.131,0.819 0.253,1.639 0.38,2.458 0.158,1.016 0.315,2.032 0.478,3.047 0.021,0.133 -0.02,0.166 -0.148,0.161 -0.254,-0.008 -0.508,0.003 -0.762,-0.004 -0.114,-0.003 -0.14,0.029 -0.121,0.142 0.068,0.412 0.127,0.826 0.187,1.24 0.014,0.096 0.05,0.139 0.158,0.135 0.254,-0.009 0.508,0.007 0.762,-0.007 0.142,-0.007 0.188,0.047 0.206,0.177 0.063,0.434 0.115,0.871 0.208,1.299 0.265,1.223 1.071,1.915 2.319,2.023 C 0.529,5.04 0.906,5.039 1.282,5 1.4,4.988 1.458,4.95 1.456,4.81 1.448,4.412 1.456,4.014 1.467,3.616 1.47,3.497 1.437,3.465 1.317,3.479 1.024,3.511 0.732,3.548 0.436,3.501 -0.013,3.43 -0.281,3.168 -0.373,2.738 -0.448,2.383 -0.489,2.021 -0.549,1.663 -0.569,1.545 -0.535,1.507 -0.413,1.51 -0.049,1.517 0.315,1.506 0.678,1.515 0.815,1.519 0.85,1.479 0.845,1.341 0.831,0.958 0.828,0.573 0.837,0.189 0.841,0.03 0.79,-0.012 0.638,-0.003 0.426,0.009 0.213,0 0,0" /></g><g
           transform="translate(53.2603,18.5669)"
           id="g56"><path
             id="path58"
             style="fill:#005296;fill-opacity:1;fill-rule:nonzero;stroke:none"
             d="M 0,0 C -0.006,0.08 -0.004,0.239 -0.031,0.394 -0.138,1.012 -0.618,1.296 -1.218,1.093 -1.562,0.977 -1.842,0.759 -2.104,0.512 -2.167,0.451 -2.198,0.389 -2.21,0.302 c -0.114,-0.757 -0.231,-1.514 -0.353,-2.271 -0.019,-0.113 0.013,-0.155 0.118,-0.189 0.278,-0.089 0.562,-0.11 0.851,-0.092 0.604,0.038 1.023,0.347 1.282,0.883 C -0.115,-0.96 -0.031,-0.525 0,0 m -1.998,1.67 c 0.365,0.309 0.725,0.552 1.153,0.653 C 0.187,2.568 1.22,2.2 1.4,0.888 1.555,-0.248 1.331,-1.329 0.632,-2.267 0.104,-2.975 -0.64,-3.32 -1.504,-3.387 c -0.821,-0.063 -1.628,0.037 -2.418,0.28 -0.173,0.052 -0.205,0.125 -0.179,0.289 0.218,1.374 0.43,2.749 0.643,4.124 0.171,1.111 0.344,2.222 0.507,3.334 0.022,0.148 0.066,0.206 0.223,0.222 0.354,0.038 0.708,0.089 1.056,0.164 0.187,0.04 0.19,-0.024 0.167,-0.168 C -1.625,4.106 -1.739,3.354 -1.855,2.603 -1.901,2.305 -1.946,2.007 -1.998,1.67" /></g><g
           transform="translate(17.9297,21.1724)"
           id="g60"><path
             id="path62"
             style="fill:#005296;fill-opacity:1;fill-rule:nonzero;stroke:none"
             d="M 0,0 C 0.328,0.421 0.645,0.771 1.033,1.049 1.465,1.359 1.943,1.546 2.471,1.613 2.605,1.63 2.634,1.592 2.633,1.466 2.629,0.958 2.632,0.45 2.64,-0.058 2.642,-0.178 2.612,-0.217 2.485,-0.232 1.446,-0.35 0.586,-0.817 -0.115,-1.588 -0.278,-1.769 -0.25,-2 -0.284,-2.209 -0.474,-3.4 -0.654,-4.593 -0.831,-5.786 -0.849,-5.912 -0.902,-5.94 -1.018,-5.939 c -0.494,0.005 -0.989,0.009 -1.483,-0.002 -0.167,-0.004 -0.209,0.04 -0.182,0.205 0.146,0.913 0.285,1.828 0.425,2.742 0.215,1.396 0.434,2.791 0.64,4.187 0.031,0.212 0.092,0.298 0.325,0.282 C -0.924,1.45 -0.552,1.462 -0.181,1.472 -0.041,1.475 0.008,1.442 0.004,1.293 -0.007,0.883 0,0.472 0,0" /></g><g
           transform="translate(57.7368,16.9903)"
           id="g64"><path
             id="path66"
             style="fill:#005296;fill-opacity:1;fill-rule:nonzero;stroke:none"
             d="m 0,0 c 0.296,0.621 0.575,1.206 0.854,1.792 0.299,0.631 0.6,1.261 0.893,1.895 0.055,0.12 0.118,0.174 0.259,0.169 C 2.401,3.845 2.797,3.853 3.225,3.853 2.98,3.375 2.751,2.926 2.521,2.478 1.762,0.998 1.002,-0.481 0.242,-1.961 0.007,-2.42 -0.249,-2.864 -0.621,-3.231 c -0.581,-0.575 -1.29,-0.707 -2.07,-0.61 -0.115,0.015 -0.124,0.074 -0.125,0.166 -0.001,0.295 -0.004,0.59 -0.016,0.884 -0.006,0.125 0.044,0.132 0.145,0.11 0.257,-0.055 0.517,-0.077 0.776,-0.018 0.482,0.112 0.713,0.478 0.88,0.9 0.032,0.083 -0.011,0.174 -0.029,0.261 -0.365,1.708 -0.726,3.417 -1.097,5.123 -0.031,0.143 0.002,0.177 0.129,0.191 0.388,0.043 0.777,0.084 1.163,0.144 0.158,0.025 0.181,-0.045 0.202,-0.169 C -0.458,2.535 -0.248,1.319 -0.04,0.104 -0.036,0.085 -0.026,0.067 0,0" /></g><g
           transform="translate(29.5476,15.2354)"
           id="g68"><path
             id="path70"
             style="fill:#005296;fill-opacity:1;fill-rule:nonzero;stroke:none"
             d="m 0,0 c -0.234,0 -0.468,0.014 -0.7,-0.004 -0.194,-0.015 -0.228,0.047 -0.198,0.23 0.153,0.933 0.294,1.868 0.438,2.803 0.217,1.402 0.434,2.804 0.645,4.207 C 0.205,7.371 0.246,7.413 0.386,7.41 0.887,7.399 1.389,7.4 1.89,7.409 2.047,7.412 2.061,7.365 2.038,7.22 1.765,5.48 1.5,3.739 1.232,1.999 1.137,1.375 1.038,0.753 0.947,0.129 0.931,0.019 0.879,-0.002 0.782,-0.001 0.522,0.003 0.261,0 0,0" /></g><g
           transform="translate(22.6062,22.6407)"
           id="g72"><path
             id="path74"
             style="fill:#005296;fill-opacity:1;fill-rule:nonzero;stroke:none"
             d="m 0,0 c 0.261,0 0.522,-0.004 0.782,0.002 0.109,0.002 0.135,-0.022 0.117,-0.139 -0.308,-1.97 -0.61,-3.941 -0.913,-5.912 -0.061,-0.399 -0.124,-0.799 -0.177,-1.2 -0.016,-0.118 -0.059,-0.16 -0.183,-0.159 -0.501,0.007 -1.002,0.011 -1.502,-0.002 -0.172,-0.004 -0.191,0.058 -0.169,0.203 0.174,1.103 0.344,2.207 0.514,3.311 0.187,1.212 0.377,2.423 0.553,3.637 0.029,0.2 0.084,0.285 0.299,0.264 C -0.455,-0.017 -0.227,0 0,0" /></g><g
           transform="translate(21.2205,5.8042)"
           id="g76"><path
             id="path78"
             style="fill:#f4a81c;fill-opacity:1;fill-rule:nonzero;stroke:none"
             d="m 0,0 c -0.382,0.923 -0.865,1.787 -1.501,2.561 -0.747,0.91 -1.628,1.665 -2.633,2.276 -0.033,0.02 -0.074,0.03 -0.111,0.044 l 0.002,-0.004 c -0.011,0.012 -0.021,0.024 -0.031,0.037 -0.863,0.534 -1.796,0.907 -2.763,1.201 -0.131,0.04 -0.263,0.079 -0.395,0.112 -0.067,0.016 -0.119,0.03 -0.098,0.117 0.017,0.073 0.036,0.134 0.13,0.122 0.034,-0.004 0.068,0 0.103,0 1.599,0 3.199,0.003 4.799,-0.002 0.539,-0.001 1.023,-0.133 1.31,-0.651 C -1.042,5.55 -1.012,5.252 -0.955,4.965 -0.641,3.378 -0.331,1.791 -0.021,0.203 -0.008,0.137 -0.007,0.068 0,0" /></g><g
           transform="translate(24.0698,25.0708)"
           id="g80"><path
             id="path82"
             style="fill:#005296;fill-opacity:1;fill-rule:nonzero;stroke:none"
             d="m 0,0 c -0.012,-0.84 -0.93,-1.442 -1.706,-1.118 -0.403,0.168 -0.588,0.559 -0.49,1.036 0.139,0.683 0.854,1.14 1.528,0.977 C -0.251,0.794 0.006,0.449 0,0" /></g><g
           transform="translate(30.8879,23.8702)"
           id="g84"><path
             id="path86"
             style="fill:#005296;fill-opacity:1;fill-rule:nonzero;stroke:none"
             d="M 0,0 C -0.716,0.003 -1.118,0.559 -0.898,1.242 -0.701,1.855 -0.044,2.236 0.581,2.099 1.093,1.987 1.377,1.48 1.234,0.934 1.089,0.382 0.58,-0.003 0,0" /></g><g
           transform="translate(16.9463,10.7183)"
           id="g88"><path
             id="path90"
             style="fill:#005296;fill-opacity:1;fill-rule:nonzero;stroke:none"
             d="M 0,0 C 0.01,-0.013 0.021,-0.025 0.031,-0.037 -0.001,-0.042 0.002,-0.02 0,0" /></g></g></g></g></svg>